M48
; DRILL file {KiCad 9.0.1} date 2025-06-03T11:03:26-0300
; FORMAT={-:-/ absolute / metric / decimal}
; #@! TF.CreationDate,2025-06-03T11:03:26-03:00
; #@! TF.GenerationSoftware,Kicad,Pcbnew,9.0.1
; #@! TF.FileFunction,Plated,1,2,PTH
FMAT,2
METRIC
; #@! TA.AperFunction,Plated,PTH,ComponentDrill
T1C0.500
; #@! TA.AperFunction,Plated,PTH,ComponentDrill
T2C1.100
; #@! TA.AperFunction,Plated,PTH,ComponentDrill
T3C1.400
; #@! TA.AperFunction,Plated,PTH,ComponentDrill
T4C3.200
%
G90
G05
T1
X97.58Y-49.23
X97.58Y-141.23
X98.283Y-47.533
X98.283Y-50.927
X98.283Y-139.533
X98.283Y-142.927
X99.98Y-46.83
X99.98Y-51.63
X99.98Y-138.83
X99.98Y-143.63
X101.677Y-47.533
X101.677Y-50.927
X101.677Y-139.533
X101.677Y-142.927
X102.38Y-49.23
X102.38Y-141.23
X189.58Y-49.23
X189.58Y-141.23
X190.283Y-47.533
X190.283Y-50.927
X190.283Y-139.533
X190.283Y-142.927
X191.98Y-46.83
X191.98Y-51.63
X191.98Y-138.83
X191.98Y-143.63
X193.677Y-47.533
X193.677Y-50.927
X193.677Y-139.533
X193.677Y-142.927
X194.38Y-49.23
X194.38Y-141.23
T2
X124.4Y-83.927
X124.4Y-106.947
X126.94Y-83.927
X126.94Y-106.947
X129.48Y-83.927
X129.48Y-106.947
X132.02Y-83.927
X132.02Y-106.947
X134.56Y-83.927
X134.56Y-106.947
X137.1Y-83.927
X137.1Y-106.947
X139.64Y-83.927
X139.64Y-106.947
X142.18Y-83.927
X142.18Y-106.947
X144.72Y-83.927
X144.72Y-106.947
X147.26Y-83.927
X147.26Y-106.947
X149.8Y-83.927
X149.8Y-106.947
X152.34Y-83.927
X152.34Y-106.947
X154.88Y-83.927
X154.88Y-106.947
X157.42Y-83.927
X157.42Y-106.947
X159.96Y-83.927
X159.96Y-106.947
X162.5Y-83.927
X162.5Y-106.947
X165.04Y-83.927
X165.04Y-106.947
X167.58Y-83.927
X167.58Y-106.947
T3
X103.52Y-59.23
X103.52Y-131.23
X108.52Y-59.23
X108.52Y-131.23
X113.52Y-59.23
X113.52Y-131.23
X118.52Y-59.23
X118.52Y-131.23
X123.52Y-59.23
X123.52Y-131.23
X128.52Y-59.23
X128.52Y-131.23
X133.52Y-59.23
X133.52Y-131.23
X138.52Y-59.23
X138.52Y-131.23
X143.52Y-59.23
X143.52Y-131.23
X148.52Y-59.23
X148.52Y-131.23
X153.52Y-59.23
X153.52Y-131.23
X158.52Y-59.23
X158.52Y-131.23
X163.52Y-59.23
X163.52Y-131.23
X168.52Y-59.23
X168.52Y-131.23
X173.52Y-59.23
X173.52Y-131.23
X178.52Y-59.23
X178.52Y-131.23
X183.52Y-59.23
X183.52Y-131.23
X188.52Y-59.23
X188.52Y-131.23
T4
X99.98Y-49.23
X99.98Y-141.23
X191.98Y-49.23
X191.98Y-141.23
M30
