%TF.GenerationSoftware,KiCad,Pcbnew,9.0.1*%
%TF.CreationDate,2025-06-03T11:03:30-03:00*%
%TF.ProjectId,breakout_heltec_wifi_lora_32,62726561-6b6f-4757-945f-68656c746563,v0.3.0*%
%TF.SameCoordinates,Original*%
%TF.FileFunction,Soldermask,Bot*%
%TF.FilePolarity,Negative*%
%FSLAX46Y46*%
G04 Gerber Fmt 4.6, Leading zero omitted, Abs format (unit mm)*
G04 Created by KiCad (PCBNEW 9.0.1) date 2025-06-03 11:03:30*
%MOMM*%
%LPD*%
G01*
G04 APERTURE LIST*
G04 Aperture macros list*
%AMRoundRect*
0 Rectangle with rounded corners*
0 $1 Rounding radius*
0 $2 $3 $4 $5 $6 $7 $8 $9 X,Y pos of 4 corners*
0 Add a 4 corners polygon primitive as box body*
4,1,4,$2,$3,$4,$5,$6,$7,$8,$9,$2,$3,0*
0 Add four circle primitives for the rounded corners*
1,1,$1+$1,$2,$3*
1,1,$1+$1,$4,$5*
1,1,$1+$1,$6,$7*
1,1,$1+$1,$8,$9*
0 Add four rect primitives between the rounded corners*
20,1,$1+$1,$2,$3,$4,$5,0*
20,1,$1+$1,$4,$5,$6,$7,0*
20,1,$1+$1,$6,$7,$8,$9,0*
20,1,$1+$1,$8,$9,$2,$3,0*%
G04 Aperture macros list end*
%ADD10RoundRect,0.280909X-0.646091X0.646091X-0.646091X-0.646091X0.646091X-0.646091X0.646091X0.646091X0*%
%ADD11C,1.854000*%
%ADD12C,0.800000*%
%ADD13C,6.400000*%
%ADD14RoundRect,0.102000X1.050000X1.050000X-1.050000X1.050000X-1.050000X-1.050000X1.050000X-1.050000X0*%
%ADD15C,2.304000*%
%ADD16RoundRect,0.102000X-1.050000X-1.050000X1.050000X-1.050000X1.050000X1.050000X-1.050000X1.050000X0*%
G04 APERTURE END LIST*
D10*
%TO.C,U1*%
X167580000Y-83927500D03*
D11*
X165040000Y-83927500D03*
X162500000Y-83927500D03*
X159960000Y-83927500D03*
X157420000Y-83927500D03*
X154880000Y-83927500D03*
X152340000Y-83927500D03*
X149800000Y-83927500D03*
X147260000Y-83927500D03*
X144720000Y-83927500D03*
X142180000Y-83927500D03*
X139640000Y-83927500D03*
X137100000Y-83927500D03*
X134560000Y-83927500D03*
X132020000Y-83927500D03*
X129480000Y-83927500D03*
X126940000Y-83927500D03*
X124400000Y-83927500D03*
X167580000Y-106947500D03*
X165040000Y-106947500D03*
X162500000Y-106947500D03*
X159960000Y-106947500D03*
X157420000Y-106947500D03*
X154880000Y-106947500D03*
X152340000Y-106947500D03*
X149800000Y-106947500D03*
X147260000Y-106947500D03*
X144720000Y-106947500D03*
X142180000Y-106947500D03*
X139640000Y-106947500D03*
X137100000Y-106947500D03*
X134560000Y-106947500D03*
X132020000Y-106947500D03*
X129480000Y-106947500D03*
X126940000Y-106947500D03*
X124400000Y-106947500D03*
%TD*%
D12*
%TO.C,H2*%
X189580000Y-49230000D03*
X190282944Y-47532944D03*
X190282944Y-50927056D03*
X191980000Y-46830000D03*
D13*
X191980000Y-49230000D03*
D12*
X191980000Y-51630000D03*
X193677056Y-47532944D03*
X193677056Y-50927056D03*
X194380000Y-49230000D03*
%TD*%
%TO.C,H1*%
X97580000Y-49230000D03*
X98282944Y-47532944D03*
X98282944Y-50927056D03*
X99980000Y-46830000D03*
D13*
X99980000Y-49230000D03*
D12*
X99980000Y-51630000D03*
X101677056Y-47532944D03*
X101677056Y-50927056D03*
X102380000Y-49230000D03*
%TD*%
D14*
%TO.C,J2*%
X188520000Y-59230000D03*
D15*
X183520000Y-59230000D03*
X178520000Y-59230000D03*
X173520000Y-59230000D03*
X168520000Y-59230000D03*
X163520000Y-59230000D03*
X158520000Y-59230000D03*
X153520000Y-59230000D03*
X148520000Y-59230000D03*
X143520000Y-59230000D03*
X138520000Y-59230000D03*
X133520000Y-59230000D03*
X128520000Y-59230000D03*
X123520000Y-59230000D03*
X118520000Y-59230000D03*
X113520000Y-59230000D03*
X108520000Y-59230000D03*
X103520000Y-59230000D03*
%TD*%
D12*
%TO.C,H4*%
X189580000Y-141230000D03*
X190282944Y-139532944D03*
X190282944Y-142927056D03*
X191980000Y-138830000D03*
D13*
X191980000Y-141230000D03*
D12*
X191980000Y-143630000D03*
X193677056Y-139532944D03*
X193677056Y-142927056D03*
X194380000Y-141230000D03*
%TD*%
D16*
%TO.C,J3*%
X103520000Y-131230000D03*
D15*
X108520000Y-131230000D03*
X113520000Y-131230000D03*
X118520000Y-131230000D03*
X123520000Y-131230000D03*
X128520000Y-131230000D03*
X133520000Y-131230000D03*
X138520000Y-131230000D03*
X143520000Y-131230000D03*
X148520000Y-131230000D03*
X153520000Y-131230000D03*
X158520000Y-131230000D03*
X163520000Y-131230000D03*
X168520000Y-131230000D03*
X173520000Y-131230000D03*
X178520000Y-131230000D03*
X183520000Y-131230000D03*
X188520000Y-131230000D03*
%TD*%
D12*
%TO.C,H3*%
X97580000Y-141230000D03*
X98282944Y-139532944D03*
X98282944Y-142927056D03*
X99980000Y-138830000D03*
D13*
X99980000Y-141230000D03*
D12*
X99980000Y-143630000D03*
X101677056Y-139532944D03*
X101677056Y-142927056D03*
X102380000Y-141230000D03*
%TD*%
M02*
