%TF.GenerationSoftware,KiCad,Pcbnew,9.0.1*%
%TF.CreationDate,2025-06-03T11:03:29-03:00*%
%TF.ProjectId,breakout_heltec_wifi_lora_32,62726561-6b6f-4757-945f-68656c746563,v0.3.0*%
%TF.SameCoordinates,Original*%
%TF.FileFunction,Copper,L2,Bot*%
%TF.FilePolarity,Positive*%
%FSLAX46Y46*%
G04 Gerber Fmt 4.6, Leading zero omitted, Abs format (unit mm)*
G04 Created by KiCad (PCBNEW 9.0.1) date 2025-06-03 11:03:29*
%MOMM*%
%LPD*%
G01*
G04 APERTURE LIST*
G04 Aperture macros list*
%AMRoundRect*
0 Rectangle with rounded corners*
0 $1 Rounding radius*
0 $2 $3 $4 $5 $6 $7 $8 $9 X,Y pos of 4 corners*
0 Add a 4 corners polygon primitive as box body*
4,1,4,$2,$3,$4,$5,$6,$7,$8,$9,$2,$3,0*
0 Add four circle primitives for the rounded corners*
1,1,$1+$1,$2,$3*
1,1,$1+$1,$4,$5*
1,1,$1+$1,$6,$7*
1,1,$1+$1,$8,$9*
0 Add four rect primitives between the rounded corners*
20,1,$1+$1,$2,$3,$4,$5,0*
20,1,$1+$1,$4,$5,$6,$7,0*
20,1,$1+$1,$6,$7,$8,$9,0*
20,1,$1+$1,$8,$9,$2,$3,0*%
G04 Aperture macros list end*
%TA.AperFunction,ComponentPad*%
%ADD10RoundRect,0.250000X-0.575000X0.575000X-0.575000X-0.575000X0.575000X-0.575000X0.575000X0.575000X0*%
%TD*%
%TA.AperFunction,ComponentPad*%
%ADD11C,1.650000*%
%TD*%
%TA.AperFunction,ComponentPad*%
%ADD12C,0.800000*%
%TD*%
%TA.AperFunction,ComponentPad*%
%ADD13C,6.400000*%
%TD*%
%TA.AperFunction,ComponentPad*%
%ADD14R,2.100000X2.100000*%
%TD*%
%TA.AperFunction,ComponentPad*%
%ADD15C,2.100000*%
%TD*%
G04 APERTURE END LIST*
D10*
%TO.P,U1,1,GND*%
%TO.N,Net-(J2-Pin_1)*%
X167580000Y-83927500D03*
D11*
%TO.P,U1,2,5V*%
%TO.N,Net-(J2-Pin_2)*%
X165040000Y-83927500D03*
%TO.P,U1,3,Ve*%
%TO.N,Net-(J2-Pin_3)*%
X162500000Y-83927500D03*
%TO.P,U1,4,Ve*%
%TO.N,Net-(J2-Pin_4)*%
X159960000Y-83927500D03*
%TO.P,U1,5,U0RXD/GPIO44/CP2102_TX*%
%TO.N,Net-(J2-Pin_5)*%
X157420000Y-83927500D03*
%TO.P,U1,6,U0TXD/GPIO43/CP2102_RX*%
%TO.N,Net-(J2-Pin_6)*%
X154880000Y-83927500D03*
%TO.P,U1,7,RST/RST_SW*%
%TO.N,Net-(J2-Pin_7)*%
X152340000Y-83927500D03*
%TO.P,U1,8,GPIO0/USER_SW*%
%TO.N,Net-(J2-Pin_8)*%
X149800000Y-83927500D03*
%TO.P,U1,9,GPIO36/SPIIO7/FSPICLK/SUBSPICLK/Vext_Ctrl*%
%TO.N,Net-(J2-Pin_9)*%
X147260000Y-83927500D03*
%TO.P,U1,10,GPIO35/SPIIO6/FSPID/SUBSPID/LED_Write*%
%TO.N,Net-(J2-Pin_10)*%
X144720000Y-83927500D03*
%TO.P,U1,11,GPIO34/SPIIO5/FSPICS0/SUBSPICS0*%
%TO.N,Net-(J2-Pin_11)*%
X142180000Y-83927500D03*
%TO.P,U1,12,GPIO33/SPIIO4/FSPIHD/SUBSPIHD*%
%TO.N,Net-(J2-Pin_12)*%
X139640000Y-83927500D03*
%TO.P,U1,13,GPIO47*%
%TO.N,Net-(J2-Pin_13)*%
X137100000Y-83927500D03*
%TO.P,U1,14,GPIO48*%
%TO.N,Net-(J2-Pin_14)*%
X134560000Y-83927500D03*
%TO.P,U1,15,GPIO26/SPICS1*%
%TO.N,Net-(J2-Pin_15)*%
X132020000Y-83927500D03*
%TO.P,U1,16,GPIO21/OLED_RST*%
%TO.N,Net-(J2-Pin_16)*%
X129480000Y-83927500D03*
%TO.P,U1,17,GPIO20/U1CTS/ADC2_CH9/CLK_OUT1/USB_D+*%
%TO.N,Net-(J2-Pin_17)*%
X126940000Y-83927500D03*
%TO.P,U1,18,GPIO19/U1RTS/ADC2_CH8/CLK_OUT2/USB_D-*%
%TO.N,Net-(J2-Pin_18)*%
X124400000Y-83927500D03*
%TO.P,U1,19,GND*%
%TO.N,Net-(J3-Pin_18)*%
X167580000Y-106947500D03*
%TO.P,U1,20,3V3*%
%TO.N,Net-(J3-Pin_17)*%
X165040000Y-106947500D03*
%TO.P,U1,21,3V3*%
%TO.N,Net-(J3-Pin_16)*%
X162500000Y-106947500D03*
%TO.P,U1,22,ADC_Ctrl/SUBSPIQ/FSPIQ/SPIDQS/GPIO37*%
%TO.N,Net-(J3-Pin_15)*%
X159960000Y-106947500D03*
%TO.P,U1,23,GPIO46*%
%TO.N,Net-(J3-Pin_14)*%
X157420000Y-106947500D03*
%TO.P,U1,24,GPIO45*%
%TO.N,Net-(J3-Pin_13)*%
X154880000Y-106947500D03*
%TO.P,U1,25,MTMS/GPIO42*%
%TO.N,Net-(J3-Pin_12)*%
X152340000Y-106947500D03*
%TO.P,U1,26,MTDI/GPIO41*%
%TO.N,Net-(J3-Pin_11)*%
X149800000Y-106947500D03*
%TO.P,U1,27,MTDO/GPIO40*%
%TO.N,Net-(J3-Pin_10)*%
X147260000Y-106947500D03*
%TO.P,U1,28,MTCK/GPIO39*%
%TO.N,Net-(J3-Pin_9)*%
X144720000Y-106947500D03*
%TO.P,U1,29,SUBSPIWP/FSPIWP/GPIO38*%
%TO.N,Net-(J3-Pin_8)*%
X142180000Y-106947500D03*
%TO.P,U1,30,TOUCH1/VBAT_Read/ADC1_CH0/GPIO1*%
%TO.N,Net-(J3-Pin_7)*%
X139640000Y-106947500D03*
%TO.P,U1,31,TOUCH2/ADC1_CH1/GPIO2*%
%TO.N,Net-(J3-Pin_6)*%
X137100000Y-106947500D03*
%TO.P,U1,32,TOUCH3/ADC1_CH2/GPIO3*%
%TO.N,Net-(J3-Pin_5)*%
X134560000Y-106947500D03*
%TO.P,U1,33,TOUCH4/ADC1_CH3/GPIO4*%
%TO.N,Net-(J3-Pin_4)*%
X132020000Y-106947500D03*
%TO.P,U1,34,TOUCH5/ADC1_CH4/GPIO5*%
%TO.N,Net-(J3-Pin_3)*%
X129480000Y-106947500D03*
%TO.P,U1,35,TOUCH6/ADC1_CH5/GPIO6*%
%TO.N,Net-(J3-Pin_2)*%
X126940000Y-106947500D03*
%TO.P,U1,36,TOUCH7/ADC1_CH6/GPIO7*%
%TO.N,Net-(J3-Pin_1)*%
X124400000Y-106947500D03*
%TD*%
D12*
%TO.P,H2,1*%
%TO.N,N/C*%
X189580000Y-49230000D03*
X190282944Y-47532944D03*
X190282944Y-50927056D03*
X191980000Y-46830000D03*
D13*
X191980000Y-49230000D03*
D12*
X191980000Y-51630000D03*
X193677056Y-47532944D03*
X193677056Y-50927056D03*
X194380000Y-49230000D03*
%TD*%
%TO.P,H1,1*%
%TO.N,N/C*%
X97580000Y-49230000D03*
X98282944Y-47532944D03*
X98282944Y-50927056D03*
X99980000Y-46830000D03*
D13*
X99980000Y-49230000D03*
D12*
X99980000Y-51630000D03*
X101677056Y-47532944D03*
X101677056Y-50927056D03*
X102380000Y-49230000D03*
%TD*%
D14*
%TO.P,J2,1,Pin_1*%
%TO.N,Net-(J2-Pin_1)*%
X188520000Y-59230000D03*
D15*
%TO.P,J2,2,Pin_2*%
%TO.N,Net-(J2-Pin_2)*%
X183520000Y-59230000D03*
%TO.P,J2,3,Pin_3*%
%TO.N,Net-(J2-Pin_3)*%
X178520000Y-59230000D03*
%TO.P,J2,4,Pin_4*%
%TO.N,Net-(J2-Pin_4)*%
X173520000Y-59230000D03*
%TO.P,J2,5,Pin_5*%
%TO.N,Net-(J2-Pin_5)*%
X168520000Y-59230000D03*
%TO.P,J2,6,Pin_6*%
%TO.N,Net-(J2-Pin_6)*%
X163520000Y-59230000D03*
%TO.P,J2,7,Pin_7*%
%TO.N,Net-(J2-Pin_7)*%
X158520000Y-59230000D03*
%TO.P,J2,8,Pin_8*%
%TO.N,Net-(J2-Pin_8)*%
X153520000Y-59230000D03*
%TO.P,J2,9,Pin_9*%
%TO.N,Net-(J2-Pin_9)*%
X148520000Y-59230000D03*
%TO.P,J2,10,Pin_10*%
%TO.N,Net-(J2-Pin_10)*%
X143520000Y-59230000D03*
%TO.P,J2,11,Pin_11*%
%TO.N,Net-(J2-Pin_11)*%
X138520000Y-59230000D03*
%TO.P,J2,12,Pin_12*%
%TO.N,Net-(J2-Pin_12)*%
X133520000Y-59230000D03*
%TO.P,J2,13,Pin_13*%
%TO.N,Net-(J2-Pin_13)*%
X128520000Y-59230000D03*
%TO.P,J2,14,Pin_14*%
%TO.N,Net-(J2-Pin_14)*%
X123520000Y-59230000D03*
%TO.P,J2,15,Pin_15*%
%TO.N,Net-(J2-Pin_15)*%
X118520000Y-59230000D03*
%TO.P,J2,16,Pin_16*%
%TO.N,Net-(J2-Pin_16)*%
X113520000Y-59230000D03*
%TO.P,J2,17,Pin_17*%
%TO.N,Net-(J2-Pin_17)*%
X108520000Y-59230000D03*
%TO.P,J2,18,Pin_18*%
%TO.N,Net-(J2-Pin_18)*%
X103520000Y-59230000D03*
%TD*%
D12*
%TO.P,H4,1*%
%TO.N,N/C*%
X189580000Y-141230000D03*
X190282944Y-139532944D03*
X190282944Y-142927056D03*
X191980000Y-138830000D03*
D13*
X191980000Y-141230000D03*
D12*
X191980000Y-143630000D03*
X193677056Y-139532944D03*
X193677056Y-142927056D03*
X194380000Y-141230000D03*
%TD*%
D14*
%TO.P,J3,1,Pin_1*%
%TO.N,Net-(J3-Pin_1)*%
X103520000Y-131230000D03*
D15*
%TO.P,J3,2,Pin_2*%
%TO.N,Net-(J3-Pin_2)*%
X108520000Y-131230000D03*
%TO.P,J3,3,Pin_3*%
%TO.N,Net-(J3-Pin_3)*%
X113520000Y-131230000D03*
%TO.P,J3,4,Pin_4*%
%TO.N,Net-(J3-Pin_4)*%
X118520000Y-131230000D03*
%TO.P,J3,5,Pin_5*%
%TO.N,Net-(J3-Pin_5)*%
X123520000Y-131230000D03*
%TO.P,J3,6,Pin_6*%
%TO.N,Net-(J3-Pin_6)*%
X128520000Y-131230000D03*
%TO.P,J3,7,Pin_7*%
%TO.N,Net-(J3-Pin_7)*%
X133520000Y-131230000D03*
%TO.P,J3,8,Pin_8*%
%TO.N,Net-(J3-Pin_8)*%
X138520000Y-131230000D03*
%TO.P,J3,9,Pin_9*%
%TO.N,Net-(J3-Pin_9)*%
X143520000Y-131230000D03*
%TO.P,J3,10,Pin_10*%
%TO.N,Net-(J3-Pin_10)*%
X148520000Y-131230000D03*
%TO.P,J3,11,Pin_11*%
%TO.N,Net-(J3-Pin_11)*%
X153520000Y-131230000D03*
%TO.P,J3,12,Pin_12*%
%TO.N,Net-(J3-Pin_12)*%
X158520000Y-131230000D03*
%TO.P,J3,13,Pin_13*%
%TO.N,Net-(J3-Pin_13)*%
X163520000Y-131230000D03*
%TO.P,J3,14,Pin_14*%
%TO.N,Net-(J3-Pin_14)*%
X168520000Y-131230000D03*
%TO.P,J3,15,Pin_15*%
%TO.N,Net-(J3-Pin_15)*%
X173520000Y-131230000D03*
%TO.P,J3,16,Pin_16*%
%TO.N,Net-(J3-Pin_16)*%
X178520000Y-131230000D03*
%TO.P,J3,17,Pin_17*%
%TO.N,Net-(J3-Pin_17)*%
X183520000Y-131230000D03*
%TO.P,J3,18,Pin_18*%
%TO.N,Net-(J3-Pin_18)*%
X188520000Y-131230000D03*
%TD*%
D12*
%TO.P,H3,1*%
%TO.N,N/C*%
X97580000Y-141230000D03*
X98282944Y-139532944D03*
X98282944Y-142927056D03*
X99980000Y-138830000D03*
D13*
X99980000Y-141230000D03*
D12*
X99980000Y-143630000D03*
X101677056Y-139532944D03*
X101677056Y-142927056D03*
X102380000Y-141230000D03*
%TD*%
%TA.AperFunction,Conductor*%
%TO.N,Net-(J2-Pin_1)*%
G36*
X190249031Y-45750185D02*
G01*
X190294786Y-45802989D01*
X190304730Y-45872147D01*
X190275705Y-45935703D01*
X190240445Y-45963858D01*
X190075279Y-46052140D01*
X190075261Y-46052151D01*
X189772964Y-46254140D01*
X189772950Y-46254150D01*
X189491893Y-46484807D01*
X189234807Y-46741893D01*
X189004150Y-47022950D01*
X189004140Y-47022964D01*
X188802151Y-47325261D01*
X188802140Y-47325279D01*
X188630756Y-47645916D01*
X188630754Y-47645921D01*
X188491614Y-47981834D01*
X188386067Y-48329776D01*
X188386064Y-48329787D01*
X188315137Y-48686369D01*
X188279500Y-49048209D01*
X188279500Y-49411790D01*
X188315137Y-49773630D01*
X188386064Y-50130212D01*
X188386067Y-50130223D01*
X188491614Y-50478165D01*
X188630754Y-50814078D01*
X188630756Y-50814083D01*
X188802140Y-51134720D01*
X188802151Y-51134738D01*
X189004140Y-51437035D01*
X189004150Y-51437049D01*
X189234807Y-51718106D01*
X189491893Y-51975192D01*
X189491898Y-51975196D01*
X189491899Y-51975197D01*
X189772956Y-52205854D01*
X190075268Y-52407853D01*
X190075277Y-52407858D01*
X190075279Y-52407859D01*
X190395916Y-52579243D01*
X190395918Y-52579243D01*
X190395924Y-52579247D01*
X190731836Y-52718386D01*
X191079767Y-52823930D01*
X191079773Y-52823931D01*
X191079776Y-52823932D01*
X191079787Y-52823935D01*
X191436369Y-52894862D01*
X191798206Y-52930500D01*
X191798209Y-52930500D01*
X192161791Y-52930500D01*
X192161794Y-52930500D01*
X192523631Y-52894862D01*
X192593045Y-52881054D01*
X192880212Y-52823935D01*
X192880223Y-52823932D01*
X192880223Y-52823931D01*
X192880233Y-52823930D01*
X193228164Y-52718386D01*
X193564076Y-52579247D01*
X193884732Y-52407853D01*
X194187044Y-52205854D01*
X194468101Y-51975197D01*
X194725197Y-51718101D01*
X194955854Y-51437044D01*
X195157853Y-51134732D01*
X195246142Y-50969555D01*
X195295104Y-50919711D01*
X195363242Y-50904250D01*
X195428921Y-50928082D01*
X195471290Y-50983639D01*
X195479500Y-51028008D01*
X195479500Y-139431991D01*
X195459815Y-139499030D01*
X195407011Y-139544785D01*
X195337853Y-139554729D01*
X195274297Y-139525704D01*
X195246142Y-139490444D01*
X195157859Y-139325279D01*
X195157858Y-139325277D01*
X195157853Y-139325268D01*
X194955854Y-139022956D01*
X194725197Y-138741899D01*
X194725196Y-138741898D01*
X194725192Y-138741893D01*
X194468106Y-138484807D01*
X194187049Y-138254150D01*
X194187048Y-138254149D01*
X194187044Y-138254146D01*
X193884732Y-138052147D01*
X193884727Y-138052144D01*
X193884720Y-138052140D01*
X193564083Y-137880756D01*
X193564078Y-137880754D01*
X193228165Y-137741614D01*
X192880223Y-137636067D01*
X192880212Y-137636064D01*
X192523630Y-137565137D01*
X192251111Y-137538296D01*
X192161794Y-137529500D01*
X191798206Y-137529500D01*
X191715679Y-137537628D01*
X191436369Y-137565137D01*
X191079787Y-137636064D01*
X191079776Y-137636067D01*
X190731834Y-137741614D01*
X190395921Y-137880754D01*
X190395916Y-137880756D01*
X190075279Y-138052140D01*
X190075261Y-138052151D01*
X189772964Y-138254140D01*
X189772950Y-138254150D01*
X189491893Y-138484807D01*
X189234807Y-138741893D01*
X189004150Y-139022950D01*
X189004140Y-139022964D01*
X188802151Y-139325261D01*
X188802140Y-139325279D01*
X188630756Y-139645916D01*
X188630754Y-139645921D01*
X188491614Y-139981834D01*
X188386067Y-140329776D01*
X188386064Y-140329787D01*
X188315137Y-140686369D01*
X188279500Y-141048209D01*
X188279500Y-141411790D01*
X188315137Y-141773630D01*
X188386064Y-142130212D01*
X188386067Y-142130223D01*
X188491614Y-142478165D01*
X188630754Y-142814078D01*
X188630756Y-142814083D01*
X188802140Y-143134720D01*
X188802151Y-143134738D01*
X189004140Y-143437035D01*
X189004150Y-143437049D01*
X189234807Y-143718106D01*
X189491893Y-143975192D01*
X189491898Y-143975196D01*
X189491899Y-143975197D01*
X189772956Y-144205854D01*
X190075268Y-144407853D01*
X190075277Y-144407858D01*
X190075279Y-144407859D01*
X190240445Y-144496142D01*
X190290289Y-144545104D01*
X190305750Y-144613242D01*
X190281918Y-144678921D01*
X190226361Y-144721290D01*
X190181992Y-144729500D01*
X101778008Y-144729500D01*
X101710969Y-144709815D01*
X101665214Y-144657011D01*
X101655270Y-144587853D01*
X101684295Y-144524297D01*
X101719555Y-144496142D01*
X101765286Y-144471698D01*
X101884732Y-144407853D01*
X102187044Y-144205854D01*
X102468101Y-143975197D01*
X102725197Y-143718101D01*
X102955854Y-143437044D01*
X103157853Y-143134732D01*
X103329247Y-142814076D01*
X103468386Y-142478164D01*
X103573930Y-142130233D01*
X103573932Y-142130223D01*
X103573935Y-142130212D01*
X103644862Y-141773630D01*
X103680500Y-141411790D01*
X103680500Y-141048209D01*
X103644862Y-140686369D01*
X103573935Y-140329787D01*
X103573932Y-140329776D01*
X103573931Y-140329773D01*
X103573930Y-140329767D01*
X103468386Y-139981836D01*
X103329247Y-139645924D01*
X103280502Y-139554729D01*
X103157859Y-139325279D01*
X103157858Y-139325277D01*
X103157853Y-139325268D01*
X102955854Y-139022956D01*
X102725197Y-138741899D01*
X102725196Y-138741898D01*
X102725192Y-138741893D01*
X102468106Y-138484807D01*
X102187049Y-138254150D01*
X102187048Y-138254149D01*
X102187044Y-138254146D01*
X101884732Y-138052147D01*
X101884727Y-138052144D01*
X101884720Y-138052140D01*
X101564083Y-137880756D01*
X101564078Y-137880754D01*
X101228165Y-137741614D01*
X100880223Y-137636067D01*
X100880212Y-137636064D01*
X100523630Y-137565137D01*
X100251111Y-137538296D01*
X100161794Y-137529500D01*
X99798206Y-137529500D01*
X99715679Y-137537628D01*
X99436369Y-137565137D01*
X99079787Y-137636064D01*
X99079776Y-137636067D01*
X98731834Y-137741614D01*
X98395921Y-137880754D01*
X98395916Y-137880756D01*
X98075279Y-138052140D01*
X98075261Y-138052151D01*
X97772964Y-138254140D01*
X97772950Y-138254150D01*
X97491893Y-138484807D01*
X97234807Y-138741893D01*
X97004150Y-139022950D01*
X97004140Y-139022964D01*
X96802151Y-139325261D01*
X96802140Y-139325279D01*
X96713858Y-139490444D01*
X96664896Y-139540289D01*
X96596758Y-139555749D01*
X96531078Y-139531917D01*
X96488710Y-139476360D01*
X96480500Y-139431991D01*
X96480500Y-130132135D01*
X101969500Y-130132135D01*
X101969500Y-132327870D01*
X101969501Y-132327876D01*
X101975908Y-132387483D01*
X102026202Y-132522328D01*
X102026206Y-132522335D01*
X102112452Y-132637544D01*
X102112455Y-132637547D01*
X102227664Y-132723793D01*
X102227671Y-132723797D01*
X102362517Y-132774091D01*
X102362516Y-132774091D01*
X102369444Y-132774835D01*
X102422127Y-132780500D01*
X104617872Y-132780499D01*
X104677483Y-132774091D01*
X104812331Y-132723796D01*
X104927546Y-132637546D01*
X105013796Y-132522331D01*
X105064091Y-132387483D01*
X105070500Y-132327873D01*
X105070499Y-131107973D01*
X106969500Y-131107973D01*
X106969500Y-131352026D01*
X107007678Y-131593072D01*
X107083097Y-131825187D01*
X107193896Y-132042642D01*
X107337339Y-132240076D01*
X107337343Y-132240081D01*
X107509918Y-132412656D01*
X107509923Y-132412660D01*
X107660879Y-132522335D01*
X107707361Y-132556106D01*
X107924815Y-132666904D01*
X108156924Y-132742321D01*
X108397973Y-132780500D01*
X108397974Y-132780500D01*
X108642026Y-132780500D01*
X108642027Y-132780500D01*
X108883076Y-132742321D01*
X109115185Y-132666904D01*
X109332639Y-132556106D01*
X109530083Y-132412655D01*
X109702655Y-132240083D01*
X109846106Y-132042639D01*
X109956904Y-131825185D01*
X110032321Y-131593076D01*
X110070500Y-131352027D01*
X110070500Y-131107973D01*
X111969500Y-131107973D01*
X111969500Y-131352026D01*
X112007678Y-131593072D01*
X112083097Y-131825187D01*
X112193896Y-132042642D01*
X112337339Y-132240076D01*
X112337343Y-132240081D01*
X112509918Y-132412656D01*
X112509923Y-132412660D01*
X112660879Y-132522335D01*
X112707361Y-132556106D01*
X112924815Y-132666904D01*
X113156924Y-132742321D01*
X113397973Y-132780500D01*
X113397974Y-132780500D01*
X113642026Y-132780500D01*
X113642027Y-132780500D01*
X113883076Y-132742321D01*
X114115185Y-132666904D01*
X114332639Y-132556106D01*
X114530083Y-132412655D01*
X114702655Y-132240083D01*
X114846106Y-132042639D01*
X114956904Y-131825185D01*
X115032321Y-131593076D01*
X115070500Y-131352027D01*
X115070500Y-131107973D01*
X116969500Y-131107973D01*
X116969500Y-131352026D01*
X117007678Y-131593072D01*
X117083097Y-131825187D01*
X117193896Y-132042642D01*
X117337339Y-132240076D01*
X117337343Y-132240081D01*
X117509918Y-132412656D01*
X117509923Y-132412660D01*
X117660879Y-132522335D01*
X117707361Y-132556106D01*
X117924815Y-132666904D01*
X118156924Y-132742321D01*
X118397973Y-132780500D01*
X118397974Y-132780500D01*
X118642026Y-132780500D01*
X118642027Y-132780500D01*
X118883076Y-132742321D01*
X119115185Y-132666904D01*
X119332639Y-132556106D01*
X119530083Y-132412655D01*
X119702655Y-132240083D01*
X119846106Y-132042639D01*
X119956904Y-131825185D01*
X120032321Y-131593076D01*
X120070500Y-131352027D01*
X120070500Y-131107973D01*
X121969500Y-131107973D01*
X121969500Y-131352026D01*
X122007678Y-131593072D01*
X122083097Y-131825187D01*
X122193896Y-132042642D01*
X122337339Y-132240076D01*
X122337343Y-132240081D01*
X122509918Y-132412656D01*
X122509923Y-132412660D01*
X122660879Y-132522335D01*
X122707361Y-132556106D01*
X122924815Y-132666904D01*
X123156924Y-132742321D01*
X123397973Y-132780500D01*
X123397974Y-132780500D01*
X123642026Y-132780500D01*
X123642027Y-132780500D01*
X123883076Y-132742321D01*
X124115185Y-132666904D01*
X124332639Y-132556106D01*
X124530083Y-132412655D01*
X124702655Y-132240083D01*
X124846106Y-132042639D01*
X124956904Y-131825185D01*
X125032321Y-131593076D01*
X125070500Y-131352027D01*
X125070500Y-131107973D01*
X126969500Y-131107973D01*
X126969500Y-131352026D01*
X127007678Y-131593072D01*
X127083097Y-131825187D01*
X127193896Y-132042642D01*
X127337339Y-132240076D01*
X127337343Y-132240081D01*
X127509918Y-132412656D01*
X127509923Y-132412660D01*
X127660879Y-132522335D01*
X127707361Y-132556106D01*
X127924815Y-132666904D01*
X128156924Y-132742321D01*
X128397973Y-132780500D01*
X128397974Y-132780500D01*
X128642026Y-132780500D01*
X128642027Y-132780500D01*
X128883076Y-132742321D01*
X129115185Y-132666904D01*
X129332639Y-132556106D01*
X129530083Y-132412655D01*
X129702655Y-132240083D01*
X129846106Y-132042639D01*
X129956904Y-131825185D01*
X130032321Y-131593076D01*
X130070500Y-131352027D01*
X130070500Y-131107973D01*
X131969500Y-131107973D01*
X131969500Y-131352026D01*
X132007678Y-131593072D01*
X132083097Y-131825187D01*
X132193896Y-132042642D01*
X132337339Y-132240076D01*
X132337343Y-132240081D01*
X132509918Y-132412656D01*
X132509923Y-132412660D01*
X132660879Y-132522335D01*
X132707361Y-132556106D01*
X132924815Y-132666904D01*
X133156924Y-132742321D01*
X133397973Y-132780500D01*
X133397974Y-132780500D01*
X133642026Y-132780500D01*
X133642027Y-132780500D01*
X133883076Y-132742321D01*
X134115185Y-132666904D01*
X134332639Y-132556106D01*
X134530083Y-132412655D01*
X134702655Y-132240083D01*
X134846106Y-132042639D01*
X134956904Y-131825185D01*
X135032321Y-131593076D01*
X135070500Y-131352027D01*
X135070500Y-131107973D01*
X136969500Y-131107973D01*
X136969500Y-131352026D01*
X137007678Y-131593072D01*
X137083097Y-131825187D01*
X137193896Y-132042642D01*
X137337339Y-132240076D01*
X137337343Y-132240081D01*
X137509918Y-132412656D01*
X137509923Y-132412660D01*
X137660879Y-132522335D01*
X137707361Y-132556106D01*
X137924815Y-132666904D01*
X138156924Y-132742321D01*
X138397973Y-132780500D01*
X138397974Y-132780500D01*
X138642026Y-132780500D01*
X138642027Y-132780500D01*
X138883076Y-132742321D01*
X139115185Y-132666904D01*
X139332639Y-132556106D01*
X139530083Y-132412655D01*
X139702655Y-132240083D01*
X139846106Y-132042639D01*
X139956904Y-131825185D01*
X140032321Y-131593076D01*
X140070500Y-131352027D01*
X140070500Y-131107973D01*
X141969500Y-131107973D01*
X141969500Y-131352026D01*
X142007678Y-131593072D01*
X142083097Y-131825187D01*
X142193896Y-132042642D01*
X142337339Y-132240076D01*
X142337343Y-132240081D01*
X142509918Y-132412656D01*
X142509923Y-132412660D01*
X142660879Y-132522335D01*
X142707361Y-132556106D01*
X142924815Y-132666904D01*
X143156924Y-132742321D01*
X143397973Y-132780500D01*
X143397974Y-132780500D01*
X143642026Y-132780500D01*
X143642027Y-132780500D01*
X143883076Y-132742321D01*
X144115185Y-132666904D01*
X144332639Y-132556106D01*
X144530083Y-132412655D01*
X144702655Y-132240083D01*
X144846106Y-132042639D01*
X144956904Y-131825185D01*
X145032321Y-131593076D01*
X145070500Y-131352027D01*
X145070500Y-131107973D01*
X146969500Y-131107973D01*
X146969500Y-131352026D01*
X147007678Y-131593072D01*
X147083097Y-131825187D01*
X147193896Y-132042642D01*
X147337339Y-132240076D01*
X147337343Y-132240081D01*
X147509918Y-132412656D01*
X147509923Y-132412660D01*
X147660879Y-132522335D01*
X147707361Y-132556106D01*
X147924815Y-132666904D01*
X148156924Y-132742321D01*
X148397973Y-132780500D01*
X148397974Y-132780500D01*
X148642026Y-132780500D01*
X148642027Y-132780500D01*
X148883076Y-132742321D01*
X149115185Y-132666904D01*
X149332639Y-132556106D01*
X149530083Y-132412655D01*
X149702655Y-132240083D01*
X149846106Y-132042639D01*
X149956904Y-131825185D01*
X150032321Y-131593076D01*
X150070500Y-131352027D01*
X150070500Y-131107973D01*
X151969500Y-131107973D01*
X151969500Y-131352026D01*
X152007678Y-131593072D01*
X152083097Y-131825187D01*
X152193896Y-132042642D01*
X152337339Y-132240076D01*
X152337343Y-132240081D01*
X152509918Y-132412656D01*
X152509923Y-132412660D01*
X152660879Y-132522335D01*
X152707361Y-132556106D01*
X152924815Y-132666904D01*
X153156924Y-132742321D01*
X153397973Y-132780500D01*
X153397974Y-132780500D01*
X153642026Y-132780500D01*
X153642027Y-132780500D01*
X153883076Y-132742321D01*
X154115185Y-132666904D01*
X154332639Y-132556106D01*
X154530083Y-132412655D01*
X154702655Y-132240083D01*
X154846106Y-132042639D01*
X154956904Y-131825185D01*
X155032321Y-131593076D01*
X155070500Y-131352027D01*
X155070500Y-131107973D01*
X156969500Y-131107973D01*
X156969500Y-131352026D01*
X157007678Y-131593072D01*
X157083097Y-131825187D01*
X157193896Y-132042642D01*
X157337339Y-132240076D01*
X157337343Y-132240081D01*
X157509918Y-132412656D01*
X157509923Y-132412660D01*
X157660879Y-132522335D01*
X157707361Y-132556106D01*
X157924815Y-132666904D01*
X158156924Y-132742321D01*
X158397973Y-132780500D01*
X158397974Y-132780500D01*
X158642026Y-132780500D01*
X158642027Y-132780500D01*
X158883076Y-132742321D01*
X159115185Y-132666904D01*
X159332639Y-132556106D01*
X159530083Y-132412655D01*
X159702655Y-132240083D01*
X159846106Y-132042639D01*
X159956904Y-131825185D01*
X160032321Y-131593076D01*
X160070500Y-131352027D01*
X160070500Y-131107973D01*
X161969500Y-131107973D01*
X161969500Y-131352026D01*
X162007678Y-131593072D01*
X162083097Y-131825187D01*
X162193896Y-132042642D01*
X162337339Y-132240076D01*
X162337343Y-132240081D01*
X162509918Y-132412656D01*
X162509923Y-132412660D01*
X162660879Y-132522335D01*
X162707361Y-132556106D01*
X162924815Y-132666904D01*
X163156924Y-132742321D01*
X163397973Y-132780500D01*
X163397974Y-132780500D01*
X163642026Y-132780500D01*
X163642027Y-132780500D01*
X163883076Y-132742321D01*
X164115185Y-132666904D01*
X164332639Y-132556106D01*
X164530083Y-132412655D01*
X164702655Y-132240083D01*
X164846106Y-132042639D01*
X164956904Y-131825185D01*
X165032321Y-131593076D01*
X165070500Y-131352027D01*
X165070500Y-131107973D01*
X166969500Y-131107973D01*
X166969500Y-131352026D01*
X167007678Y-131593072D01*
X167083097Y-131825187D01*
X167193896Y-132042642D01*
X167337339Y-132240076D01*
X167337343Y-132240081D01*
X167509918Y-132412656D01*
X167509923Y-132412660D01*
X167660879Y-132522335D01*
X167707361Y-132556106D01*
X167924815Y-132666904D01*
X168156924Y-132742321D01*
X168397973Y-132780500D01*
X168397974Y-132780500D01*
X168642026Y-132780500D01*
X168642027Y-132780500D01*
X168883076Y-132742321D01*
X169115185Y-132666904D01*
X169332639Y-132556106D01*
X169530083Y-132412655D01*
X169702655Y-132240083D01*
X169846106Y-132042639D01*
X169956904Y-131825185D01*
X170032321Y-131593076D01*
X170070500Y-131352027D01*
X170070500Y-131107973D01*
X171969500Y-131107973D01*
X171969500Y-131352026D01*
X172007678Y-131593072D01*
X172083097Y-131825187D01*
X172193896Y-132042642D01*
X172337339Y-132240076D01*
X172337343Y-132240081D01*
X172509918Y-132412656D01*
X172509923Y-132412660D01*
X172660879Y-132522335D01*
X172707361Y-132556106D01*
X172924815Y-132666904D01*
X173156924Y-132742321D01*
X173397973Y-132780500D01*
X173397974Y-132780500D01*
X173642026Y-132780500D01*
X173642027Y-132780500D01*
X173883076Y-132742321D01*
X174115185Y-132666904D01*
X174332639Y-132556106D01*
X174530083Y-132412655D01*
X174702655Y-132240083D01*
X174846106Y-132042639D01*
X174956904Y-131825185D01*
X175032321Y-131593076D01*
X175070500Y-131352027D01*
X175070500Y-131107973D01*
X176969500Y-131107973D01*
X176969500Y-131352026D01*
X177007678Y-131593072D01*
X177083097Y-131825187D01*
X177193896Y-132042642D01*
X177337339Y-132240076D01*
X177337343Y-132240081D01*
X177509918Y-132412656D01*
X177509923Y-132412660D01*
X177660879Y-132522335D01*
X177707361Y-132556106D01*
X177924815Y-132666904D01*
X178156924Y-132742321D01*
X178397973Y-132780500D01*
X178397974Y-132780500D01*
X178642026Y-132780500D01*
X178642027Y-132780500D01*
X178883076Y-132742321D01*
X179115185Y-132666904D01*
X179332639Y-132556106D01*
X179530083Y-132412655D01*
X179702655Y-132240083D01*
X179846106Y-132042639D01*
X179956904Y-131825185D01*
X180032321Y-131593076D01*
X180070500Y-131352027D01*
X180070500Y-131107973D01*
X181969500Y-131107973D01*
X181969500Y-131352026D01*
X182007678Y-131593072D01*
X182083097Y-131825187D01*
X182193896Y-132042642D01*
X182337339Y-132240076D01*
X182337343Y-132240081D01*
X182509918Y-132412656D01*
X182509923Y-132412660D01*
X182660879Y-132522335D01*
X182707361Y-132556106D01*
X182924815Y-132666904D01*
X183156924Y-132742321D01*
X183397973Y-132780500D01*
X183397974Y-132780500D01*
X183642026Y-132780500D01*
X183642027Y-132780500D01*
X183883076Y-132742321D01*
X184115185Y-132666904D01*
X184332639Y-132556106D01*
X184530083Y-132412655D01*
X184702655Y-132240083D01*
X184846106Y-132042639D01*
X184956904Y-131825185D01*
X185032321Y-131593076D01*
X185070500Y-131352027D01*
X185070500Y-131107973D01*
X186969500Y-131107973D01*
X186969500Y-131352026D01*
X187007678Y-131593072D01*
X187083097Y-131825187D01*
X187193896Y-132042642D01*
X187337339Y-132240076D01*
X187337343Y-132240081D01*
X187509918Y-132412656D01*
X187509923Y-132412660D01*
X187660879Y-132522335D01*
X187707361Y-132556106D01*
X187924815Y-132666904D01*
X188156924Y-132742321D01*
X188397973Y-132780500D01*
X188397974Y-132780500D01*
X188642026Y-132780500D01*
X188642027Y-132780500D01*
X188883076Y-132742321D01*
X189115185Y-132666904D01*
X189332639Y-132556106D01*
X189530083Y-132412655D01*
X189702655Y-132240083D01*
X189846106Y-132042639D01*
X189956904Y-131825185D01*
X190032321Y-131593076D01*
X190070500Y-131352027D01*
X190070500Y-131107973D01*
X190032321Y-130866924D01*
X189956904Y-130634815D01*
X189846106Y-130417361D01*
X189827779Y-130392136D01*
X189702660Y-130219923D01*
X189702656Y-130219918D01*
X189530081Y-130047343D01*
X189530076Y-130047339D01*
X189332642Y-129903896D01*
X189332641Y-129903895D01*
X189332639Y-129903894D01*
X189115185Y-129793096D01*
X188883076Y-129717679D01*
X188883074Y-129717678D01*
X188883072Y-129717678D01*
X188682491Y-129685909D01*
X188642027Y-129679500D01*
X188397973Y-129679500D01*
X188357515Y-129685908D01*
X188156927Y-129717678D01*
X187924812Y-129793097D01*
X187707357Y-129903896D01*
X187509923Y-130047339D01*
X187509918Y-130047343D01*
X187337343Y-130219918D01*
X187337339Y-130219923D01*
X187193896Y-130417357D01*
X187083097Y-130634812D01*
X187007678Y-130866927D01*
X186969500Y-131107973D01*
X185070500Y-131107973D01*
X185032321Y-130866924D01*
X184956904Y-130634815D01*
X184846106Y-130417361D01*
X184827779Y-130392136D01*
X184702660Y-130219923D01*
X184702656Y-130219918D01*
X184530081Y-130047343D01*
X184530076Y-130047339D01*
X184332642Y-129903896D01*
X184332641Y-129903895D01*
X184332639Y-129903894D01*
X184115185Y-129793096D01*
X183883076Y-129717679D01*
X183883074Y-129717678D01*
X183883072Y-129717678D01*
X183682491Y-129685909D01*
X183642027Y-129679500D01*
X183397973Y-129679500D01*
X183357515Y-129685908D01*
X183156927Y-129717678D01*
X182924812Y-129793097D01*
X182707357Y-129903896D01*
X182509923Y-130047339D01*
X182509918Y-130047343D01*
X182337343Y-130219918D01*
X182337339Y-130219923D01*
X182193896Y-130417357D01*
X182083097Y-130634812D01*
X182007678Y-130866927D01*
X181969500Y-131107973D01*
X180070500Y-131107973D01*
X180032321Y-130866924D01*
X179956904Y-130634815D01*
X179846106Y-130417361D01*
X179827779Y-130392136D01*
X179702660Y-130219923D01*
X179702656Y-130219918D01*
X179530081Y-130047343D01*
X179530076Y-130047339D01*
X179332642Y-129903896D01*
X179332641Y-129903895D01*
X179332639Y-129903894D01*
X179115185Y-129793096D01*
X178883076Y-129717679D01*
X178883074Y-129717678D01*
X178883072Y-129717678D01*
X178682491Y-129685909D01*
X178642027Y-129679500D01*
X178397973Y-129679500D01*
X178357515Y-129685908D01*
X178156927Y-129717678D01*
X177924812Y-129793097D01*
X177707357Y-129903896D01*
X177509923Y-130047339D01*
X177509918Y-130047343D01*
X177337343Y-130219918D01*
X177337339Y-130219923D01*
X177193896Y-130417357D01*
X177083097Y-130634812D01*
X177007678Y-130866927D01*
X176969500Y-131107973D01*
X175070500Y-131107973D01*
X175032321Y-130866924D01*
X174956904Y-130634815D01*
X174846106Y-130417361D01*
X174827779Y-130392136D01*
X174702660Y-130219923D01*
X174702656Y-130219918D01*
X174530081Y-130047343D01*
X174530076Y-130047339D01*
X174332642Y-129903896D01*
X174332641Y-129903895D01*
X174332639Y-129903894D01*
X174115185Y-129793096D01*
X173883076Y-129717679D01*
X173883074Y-129717678D01*
X173883072Y-129717678D01*
X173682491Y-129685909D01*
X173642027Y-129679500D01*
X173397973Y-129679500D01*
X173357515Y-129685908D01*
X173156927Y-129717678D01*
X172924812Y-129793097D01*
X172707357Y-129903896D01*
X172509923Y-130047339D01*
X172509918Y-130047343D01*
X172337343Y-130219918D01*
X172337339Y-130219923D01*
X172193896Y-130417357D01*
X172083097Y-130634812D01*
X172007678Y-130866927D01*
X171969500Y-131107973D01*
X170070500Y-131107973D01*
X170032321Y-130866924D01*
X169956904Y-130634815D01*
X169846106Y-130417361D01*
X169827779Y-130392136D01*
X169702660Y-130219923D01*
X169702656Y-130219918D01*
X169530081Y-130047343D01*
X169530076Y-130047339D01*
X169332642Y-129903896D01*
X169332641Y-129903895D01*
X169332639Y-129903894D01*
X169115185Y-129793096D01*
X168883076Y-129717679D01*
X168883074Y-129717678D01*
X168883072Y-129717678D01*
X168682491Y-129685909D01*
X168642027Y-129679500D01*
X168397973Y-129679500D01*
X168357515Y-129685908D01*
X168156927Y-129717678D01*
X167924812Y-129793097D01*
X167707357Y-129903896D01*
X167509923Y-130047339D01*
X167509918Y-130047343D01*
X167337343Y-130219918D01*
X167337339Y-130219923D01*
X167193896Y-130417357D01*
X167083097Y-130634812D01*
X167007678Y-130866927D01*
X166969500Y-131107973D01*
X165070500Y-131107973D01*
X165032321Y-130866924D01*
X164956904Y-130634815D01*
X164846106Y-130417361D01*
X164827779Y-130392136D01*
X164702660Y-130219923D01*
X164702656Y-130219918D01*
X164530081Y-130047343D01*
X164530076Y-130047339D01*
X164332642Y-129903896D01*
X164332641Y-129903895D01*
X164332639Y-129903894D01*
X164115185Y-129793096D01*
X163883076Y-129717679D01*
X163883074Y-129717678D01*
X163883072Y-129717678D01*
X163682491Y-129685909D01*
X163642027Y-129679500D01*
X163397973Y-129679500D01*
X163357515Y-129685908D01*
X163156927Y-129717678D01*
X162924812Y-129793097D01*
X162707357Y-129903896D01*
X162509923Y-130047339D01*
X162509918Y-130047343D01*
X162337343Y-130219918D01*
X162337339Y-130219923D01*
X162193896Y-130417357D01*
X162083097Y-130634812D01*
X162007678Y-130866927D01*
X161969500Y-131107973D01*
X160070500Y-131107973D01*
X160032321Y-130866924D01*
X159956904Y-130634815D01*
X159846106Y-130417361D01*
X159827779Y-130392136D01*
X159702660Y-130219923D01*
X159702656Y-130219918D01*
X159530081Y-130047343D01*
X159530076Y-130047339D01*
X159332642Y-129903896D01*
X159332641Y-129903895D01*
X159332639Y-129903894D01*
X159115185Y-129793096D01*
X158883076Y-129717679D01*
X158883074Y-129717678D01*
X158883072Y-129717678D01*
X158682491Y-129685909D01*
X158642027Y-129679500D01*
X158397973Y-129679500D01*
X158357515Y-129685908D01*
X158156927Y-129717678D01*
X157924812Y-129793097D01*
X157707357Y-129903896D01*
X157509923Y-130047339D01*
X157509918Y-130047343D01*
X157337343Y-130219918D01*
X157337339Y-130219923D01*
X157193896Y-130417357D01*
X157083097Y-130634812D01*
X157007678Y-130866927D01*
X156969500Y-131107973D01*
X155070500Y-131107973D01*
X155032321Y-130866924D01*
X154956904Y-130634815D01*
X154846106Y-130417361D01*
X154827779Y-130392136D01*
X154702660Y-130219923D01*
X154702656Y-130219918D01*
X154530081Y-130047343D01*
X154530076Y-130047339D01*
X154332642Y-129903896D01*
X154332641Y-129903895D01*
X154332639Y-129903894D01*
X154115185Y-129793096D01*
X153883076Y-129717679D01*
X153883074Y-129717678D01*
X153883072Y-129717678D01*
X153682491Y-129685909D01*
X153642027Y-129679500D01*
X153397973Y-129679500D01*
X153357515Y-129685908D01*
X153156927Y-129717678D01*
X152924812Y-129793097D01*
X152707357Y-129903896D01*
X152509923Y-130047339D01*
X152509918Y-130047343D01*
X152337343Y-130219918D01*
X152337339Y-130219923D01*
X152193896Y-130417357D01*
X152083097Y-130634812D01*
X152007678Y-130866927D01*
X151969500Y-131107973D01*
X150070500Y-131107973D01*
X150032321Y-130866924D01*
X149956904Y-130634815D01*
X149846106Y-130417361D01*
X149827779Y-130392136D01*
X149702660Y-130219923D01*
X149702656Y-130219918D01*
X149530081Y-130047343D01*
X149530076Y-130047339D01*
X149332642Y-129903896D01*
X149332641Y-129903895D01*
X149332639Y-129903894D01*
X149115185Y-129793096D01*
X148883076Y-129717679D01*
X148883074Y-129717678D01*
X148883072Y-129717678D01*
X148682491Y-129685909D01*
X148642027Y-129679500D01*
X148397973Y-129679500D01*
X148357515Y-129685908D01*
X148156927Y-129717678D01*
X147924812Y-129793097D01*
X147707357Y-129903896D01*
X147509923Y-130047339D01*
X147509918Y-130047343D01*
X147337343Y-130219918D01*
X147337339Y-130219923D01*
X147193896Y-130417357D01*
X147083097Y-130634812D01*
X147007678Y-130866927D01*
X146969500Y-131107973D01*
X145070500Y-131107973D01*
X145032321Y-130866924D01*
X144956904Y-130634815D01*
X144846106Y-130417361D01*
X144827779Y-130392136D01*
X144702660Y-130219923D01*
X144702656Y-130219918D01*
X144530081Y-130047343D01*
X144530076Y-130047339D01*
X144332642Y-129903896D01*
X144332641Y-129903895D01*
X144332639Y-129903894D01*
X144115185Y-129793096D01*
X143883076Y-129717679D01*
X143883074Y-129717678D01*
X143883072Y-129717678D01*
X143682491Y-129685909D01*
X143642027Y-129679500D01*
X143397973Y-129679500D01*
X143357515Y-129685908D01*
X143156927Y-129717678D01*
X142924812Y-129793097D01*
X142707357Y-129903896D01*
X142509923Y-130047339D01*
X142509918Y-130047343D01*
X142337343Y-130219918D01*
X142337339Y-130219923D01*
X142193896Y-130417357D01*
X142083097Y-130634812D01*
X142007678Y-130866927D01*
X141969500Y-131107973D01*
X140070500Y-131107973D01*
X140032321Y-130866924D01*
X139956904Y-130634815D01*
X139846106Y-130417361D01*
X139827779Y-130392136D01*
X139702660Y-130219923D01*
X139702656Y-130219918D01*
X139530081Y-130047343D01*
X139530076Y-130047339D01*
X139332642Y-129903896D01*
X139332641Y-129903895D01*
X139332639Y-129903894D01*
X139115185Y-129793096D01*
X138883076Y-129717679D01*
X138883074Y-129717678D01*
X138883072Y-129717678D01*
X138682491Y-129685909D01*
X138642027Y-129679500D01*
X138397973Y-129679500D01*
X138357515Y-129685908D01*
X138156927Y-129717678D01*
X137924812Y-129793097D01*
X137707357Y-129903896D01*
X137509923Y-130047339D01*
X137509918Y-130047343D01*
X137337343Y-130219918D01*
X137337339Y-130219923D01*
X137193896Y-130417357D01*
X137083097Y-130634812D01*
X137007678Y-130866927D01*
X136969500Y-131107973D01*
X135070500Y-131107973D01*
X135032321Y-130866924D01*
X134956904Y-130634815D01*
X134846106Y-130417361D01*
X134827779Y-130392136D01*
X134702660Y-130219923D01*
X134702656Y-130219918D01*
X134530081Y-130047343D01*
X134530076Y-130047339D01*
X134332642Y-129903896D01*
X134332641Y-129903895D01*
X134332639Y-129903894D01*
X134115185Y-129793096D01*
X133883076Y-129717679D01*
X133883074Y-129717678D01*
X133883072Y-129717678D01*
X133682491Y-129685909D01*
X133642027Y-129679500D01*
X133397973Y-129679500D01*
X133357515Y-129685908D01*
X133156927Y-129717678D01*
X132924812Y-129793097D01*
X132707357Y-129903896D01*
X132509923Y-130047339D01*
X132509918Y-130047343D01*
X132337343Y-130219918D01*
X132337339Y-130219923D01*
X132193896Y-130417357D01*
X132083097Y-130634812D01*
X132007678Y-130866927D01*
X131969500Y-131107973D01*
X130070500Y-131107973D01*
X130032321Y-130866924D01*
X129956904Y-130634815D01*
X129846106Y-130417361D01*
X129827779Y-130392136D01*
X129702660Y-130219923D01*
X129702656Y-130219918D01*
X129530081Y-130047343D01*
X129530076Y-130047339D01*
X129332642Y-129903896D01*
X129332641Y-129903895D01*
X129332639Y-129903894D01*
X129115185Y-129793096D01*
X128883076Y-129717679D01*
X128883074Y-129717678D01*
X128883072Y-129717678D01*
X128682491Y-129685909D01*
X128642027Y-129679500D01*
X128397973Y-129679500D01*
X128357515Y-129685908D01*
X128156927Y-129717678D01*
X127924812Y-129793097D01*
X127707357Y-129903896D01*
X127509923Y-130047339D01*
X127509918Y-130047343D01*
X127337343Y-130219918D01*
X127337339Y-130219923D01*
X127193896Y-130417357D01*
X127083097Y-130634812D01*
X127007678Y-130866927D01*
X126969500Y-131107973D01*
X125070500Y-131107973D01*
X125032321Y-130866924D01*
X124956904Y-130634815D01*
X124846106Y-130417361D01*
X124827779Y-130392136D01*
X124702660Y-130219923D01*
X124702656Y-130219918D01*
X124530081Y-130047343D01*
X124530076Y-130047339D01*
X124332642Y-129903896D01*
X124332641Y-129903895D01*
X124332639Y-129903894D01*
X124115185Y-129793096D01*
X123883076Y-129717679D01*
X123883074Y-129717678D01*
X123883072Y-129717678D01*
X123682491Y-129685909D01*
X123642027Y-129679500D01*
X123397973Y-129679500D01*
X123357515Y-129685908D01*
X123156927Y-129717678D01*
X122924812Y-129793097D01*
X122707357Y-129903896D01*
X122509923Y-130047339D01*
X122509918Y-130047343D01*
X122337343Y-130219918D01*
X122337339Y-130219923D01*
X122193896Y-130417357D01*
X122083097Y-130634812D01*
X122007678Y-130866927D01*
X121969500Y-131107973D01*
X120070500Y-131107973D01*
X120032321Y-130866924D01*
X119956904Y-130634815D01*
X119846106Y-130417361D01*
X119827779Y-130392136D01*
X119702660Y-130219923D01*
X119702656Y-130219918D01*
X119530081Y-130047343D01*
X119530076Y-130047339D01*
X119332642Y-129903896D01*
X119332641Y-129903895D01*
X119332639Y-129903894D01*
X119115185Y-129793096D01*
X118883076Y-129717679D01*
X118883074Y-129717678D01*
X118883072Y-129717678D01*
X118682491Y-129685909D01*
X118642027Y-129679500D01*
X118397973Y-129679500D01*
X118357515Y-129685908D01*
X118156927Y-129717678D01*
X117924812Y-129793097D01*
X117707357Y-129903896D01*
X117509923Y-130047339D01*
X117509918Y-130047343D01*
X117337343Y-130219918D01*
X117337339Y-130219923D01*
X117193896Y-130417357D01*
X117083097Y-130634812D01*
X117007678Y-130866927D01*
X116969500Y-131107973D01*
X115070500Y-131107973D01*
X115032321Y-130866924D01*
X114956904Y-130634815D01*
X114846106Y-130417361D01*
X114827779Y-130392136D01*
X114702660Y-130219923D01*
X114702656Y-130219918D01*
X114530081Y-130047343D01*
X114530076Y-130047339D01*
X114332642Y-129903896D01*
X114332641Y-129903895D01*
X114332639Y-129903894D01*
X114115185Y-129793096D01*
X113883076Y-129717679D01*
X113883074Y-129717678D01*
X113883072Y-129717678D01*
X113682491Y-129685909D01*
X113642027Y-129679500D01*
X113397973Y-129679500D01*
X113357515Y-129685908D01*
X113156927Y-129717678D01*
X112924812Y-129793097D01*
X112707357Y-129903896D01*
X112509923Y-130047339D01*
X112509918Y-130047343D01*
X112337343Y-130219918D01*
X112337339Y-130219923D01*
X112193896Y-130417357D01*
X112083097Y-130634812D01*
X112007678Y-130866927D01*
X111969500Y-131107973D01*
X110070500Y-131107973D01*
X110032321Y-130866924D01*
X109956904Y-130634815D01*
X109846106Y-130417361D01*
X109827779Y-130392136D01*
X109702660Y-130219923D01*
X109702656Y-130219918D01*
X109530081Y-130047343D01*
X109530076Y-130047339D01*
X109332642Y-129903896D01*
X109332641Y-129903895D01*
X109332639Y-129903894D01*
X109115185Y-129793096D01*
X108883076Y-129717679D01*
X108883074Y-129717678D01*
X108883072Y-129717678D01*
X108682491Y-129685909D01*
X108642027Y-129679500D01*
X108397973Y-129679500D01*
X108357515Y-129685908D01*
X108156927Y-129717678D01*
X107924812Y-129793097D01*
X107707357Y-129903896D01*
X107509923Y-130047339D01*
X107509918Y-130047343D01*
X107337343Y-130219918D01*
X107337339Y-130219923D01*
X107193896Y-130417357D01*
X107083097Y-130634812D01*
X107007678Y-130866927D01*
X106969500Y-131107973D01*
X105070499Y-131107973D01*
X105070499Y-130132128D01*
X105064091Y-130072517D01*
X105054702Y-130047345D01*
X105013797Y-129937671D01*
X105013793Y-129937664D01*
X104927547Y-129822455D01*
X104927544Y-129822452D01*
X104812335Y-129736206D01*
X104812328Y-129736202D01*
X104677482Y-129685908D01*
X104677483Y-129685908D01*
X104617883Y-129679501D01*
X104617881Y-129679500D01*
X104617873Y-129679500D01*
X104617864Y-129679500D01*
X102422129Y-129679500D01*
X102422123Y-129679501D01*
X102362516Y-129685908D01*
X102227671Y-129736202D01*
X102227664Y-129736206D01*
X102112455Y-129822452D01*
X102112452Y-129822455D01*
X102026206Y-129937664D01*
X102026202Y-129937671D01*
X101975908Y-130072517D01*
X101969501Y-130132116D01*
X101969501Y-130132123D01*
X101969500Y-130132135D01*
X96480500Y-130132135D01*
X96480500Y-106843175D01*
X123074500Y-106843175D01*
X123074500Y-107051824D01*
X123107137Y-107257889D01*
X123171612Y-107456320D01*
X123240485Y-107591490D01*
X123266330Y-107642214D01*
X123388965Y-107811005D01*
X123536495Y-107958535D01*
X123705286Y-108081170D01*
X123793116Y-108125921D01*
X123891179Y-108175887D01*
X123891181Y-108175887D01*
X123891184Y-108175889D01*
X123997545Y-108210448D01*
X124089610Y-108240362D01*
X124295676Y-108273000D01*
X124295681Y-108273000D01*
X124504324Y-108273000D01*
X124710389Y-108240362D01*
X124908816Y-108175889D01*
X125094714Y-108081170D01*
X125263505Y-107958535D01*
X125411035Y-107811005D01*
X125533670Y-107642214D01*
X125559515Y-107591490D01*
X125607489Y-107540694D01*
X125675310Y-107523898D01*
X125741445Y-107546435D01*
X125780485Y-107591490D01*
X125806328Y-107642212D01*
X125888086Y-107754741D01*
X125928965Y-107811005D01*
X126076495Y-107958535D01*
X126245286Y-108081170D01*
X126333116Y-108125921D01*
X126431179Y-108175887D01*
X126431181Y-108175887D01*
X126431184Y-108175889D01*
X126537545Y-108210448D01*
X126629610Y-108240362D01*
X126835676Y-108273000D01*
X126835681Y-108273000D01*
X127044324Y-108273000D01*
X127250389Y-108240362D01*
X127448816Y-108175889D01*
X127634714Y-108081170D01*
X127803505Y-107958535D01*
X127951035Y-107811005D01*
X128073670Y-107642214D01*
X128099515Y-107591490D01*
X128147489Y-107540694D01*
X128215310Y-107523898D01*
X128281445Y-107546435D01*
X128320485Y-107591490D01*
X128346328Y-107642212D01*
X128428086Y-107754741D01*
X128468965Y-107811005D01*
X128616495Y-107958535D01*
X128785286Y-108081170D01*
X128873116Y-108125921D01*
X128971179Y-108175887D01*
X128971181Y-108175887D01*
X128971184Y-108175889D01*
X129077545Y-108210448D01*
X129169610Y-108240362D01*
X129375676Y-108273000D01*
X129375681Y-108273000D01*
X129584324Y-108273000D01*
X129790389Y-108240362D01*
X129988816Y-108175889D01*
X130174714Y-108081170D01*
X130343505Y-107958535D01*
X130491035Y-107811005D01*
X130613670Y-107642214D01*
X130639515Y-107591490D01*
X130687489Y-107540694D01*
X130755310Y-107523898D01*
X130821445Y-107546435D01*
X130860485Y-107591490D01*
X130886328Y-107642212D01*
X130968086Y-107754741D01*
X131008965Y-107811005D01*
X131156495Y-107958535D01*
X131325286Y-108081170D01*
X131413116Y-108125921D01*
X131511179Y-108175887D01*
X131511181Y-108175887D01*
X131511184Y-108175889D01*
X131617545Y-108210448D01*
X131709610Y-108240362D01*
X131915676Y-108273000D01*
X131915681Y-108273000D01*
X132124324Y-108273000D01*
X132330389Y-108240362D01*
X132528816Y-108175889D01*
X132714714Y-108081170D01*
X132883505Y-107958535D01*
X133031035Y-107811005D01*
X133153670Y-107642214D01*
X133179515Y-107591490D01*
X133227489Y-107540694D01*
X133295310Y-107523898D01*
X133361445Y-107546435D01*
X133400485Y-107591490D01*
X133426328Y-107642212D01*
X133508086Y-107754741D01*
X133548965Y-107811005D01*
X133696495Y-107958535D01*
X133865286Y-108081170D01*
X133953116Y-108125921D01*
X134051179Y-108175887D01*
X134051181Y-108175887D01*
X134051184Y-108175889D01*
X134157545Y-108210448D01*
X134249610Y-108240362D01*
X134455676Y-108273000D01*
X134455681Y-108273000D01*
X134664324Y-108273000D01*
X134870389Y-108240362D01*
X135068816Y-108175889D01*
X135254714Y-108081170D01*
X135423505Y-107958535D01*
X135571035Y-107811005D01*
X135693670Y-107642214D01*
X135719515Y-107591490D01*
X135767489Y-107540694D01*
X135835310Y-107523898D01*
X135901445Y-107546435D01*
X135940485Y-107591490D01*
X135966328Y-107642212D01*
X136048086Y-107754741D01*
X136088965Y-107811005D01*
X136236495Y-107958535D01*
X136405286Y-108081170D01*
X136493116Y-108125921D01*
X136591179Y-108175887D01*
X136591181Y-108175887D01*
X136591184Y-108175889D01*
X136697545Y-108210448D01*
X136789610Y-108240362D01*
X136995676Y-108273000D01*
X136995681Y-108273000D01*
X137204324Y-108273000D01*
X137410389Y-108240362D01*
X137608816Y-108175889D01*
X137794714Y-108081170D01*
X137963505Y-107958535D01*
X138111035Y-107811005D01*
X138233670Y-107642214D01*
X138259515Y-107591490D01*
X138307489Y-107540694D01*
X138375310Y-107523898D01*
X138441445Y-107546435D01*
X138480485Y-107591490D01*
X138506328Y-107642212D01*
X138588086Y-107754741D01*
X138628965Y-107811005D01*
X138776495Y-107958535D01*
X138945286Y-108081170D01*
X139033116Y-108125921D01*
X139131179Y-108175887D01*
X139131181Y-108175887D01*
X139131184Y-108175889D01*
X139237545Y-108210448D01*
X139329610Y-108240362D01*
X139535676Y-108273000D01*
X139535681Y-108273000D01*
X139744324Y-108273000D01*
X139950389Y-108240362D01*
X140148816Y-108175889D01*
X140334714Y-108081170D01*
X140503505Y-107958535D01*
X140651035Y-107811005D01*
X140773670Y-107642214D01*
X140799515Y-107591490D01*
X140847489Y-107540694D01*
X140915310Y-107523898D01*
X140981445Y-107546435D01*
X141020485Y-107591490D01*
X141046328Y-107642212D01*
X141128086Y-107754741D01*
X141168965Y-107811005D01*
X141316495Y-107958535D01*
X141485286Y-108081170D01*
X141573116Y-108125921D01*
X141671179Y-108175887D01*
X141671181Y-108175887D01*
X141671184Y-108175889D01*
X141777545Y-108210448D01*
X141869610Y-108240362D01*
X142075676Y-108273000D01*
X142075681Y-108273000D01*
X142284324Y-108273000D01*
X142490389Y-108240362D01*
X142688816Y-108175889D01*
X142874714Y-108081170D01*
X143043505Y-107958535D01*
X143191035Y-107811005D01*
X143313670Y-107642214D01*
X143339515Y-107591490D01*
X143387489Y-107540694D01*
X143455310Y-107523898D01*
X143521445Y-107546435D01*
X143560485Y-107591490D01*
X143586328Y-107642212D01*
X143668086Y-107754741D01*
X143708965Y-107811005D01*
X143856495Y-107958535D01*
X144025286Y-108081170D01*
X144113116Y-108125921D01*
X144211179Y-108175887D01*
X144211181Y-108175887D01*
X144211184Y-108175889D01*
X144317545Y-108210448D01*
X144409610Y-108240362D01*
X144615676Y-108273000D01*
X144615681Y-108273000D01*
X144824324Y-108273000D01*
X145030389Y-108240362D01*
X145228816Y-108175889D01*
X145414714Y-108081170D01*
X145583505Y-107958535D01*
X145731035Y-107811005D01*
X145853670Y-107642214D01*
X145879515Y-107591490D01*
X145927489Y-107540694D01*
X145995310Y-107523898D01*
X146061445Y-107546435D01*
X146100485Y-107591490D01*
X146126328Y-107642212D01*
X146208086Y-107754741D01*
X146248965Y-107811005D01*
X146396495Y-107958535D01*
X146565286Y-108081170D01*
X146653116Y-108125921D01*
X146751179Y-108175887D01*
X146751181Y-108175887D01*
X146751184Y-108175889D01*
X146857545Y-108210448D01*
X146949610Y-108240362D01*
X147155676Y-108273000D01*
X147155681Y-108273000D01*
X147364324Y-108273000D01*
X147570389Y-108240362D01*
X147768816Y-108175889D01*
X147954714Y-108081170D01*
X148123505Y-107958535D01*
X148271035Y-107811005D01*
X148393670Y-107642214D01*
X148419515Y-107591490D01*
X148467489Y-107540694D01*
X148535310Y-107523898D01*
X148601445Y-107546435D01*
X148640485Y-107591490D01*
X148666328Y-107642212D01*
X148748086Y-107754741D01*
X148788965Y-107811005D01*
X148936495Y-107958535D01*
X149105286Y-108081170D01*
X149193116Y-108125921D01*
X149291179Y-108175887D01*
X149291181Y-108175887D01*
X149291184Y-108175889D01*
X149397545Y-108210448D01*
X149489610Y-108240362D01*
X149695676Y-108273000D01*
X149695681Y-108273000D01*
X149904324Y-108273000D01*
X150110389Y-108240362D01*
X150308816Y-108175889D01*
X150494714Y-108081170D01*
X150663505Y-107958535D01*
X150811035Y-107811005D01*
X150933670Y-107642214D01*
X150959515Y-107591490D01*
X151007489Y-107540694D01*
X151075310Y-107523898D01*
X151141445Y-107546435D01*
X151180485Y-107591490D01*
X151206328Y-107642212D01*
X151288086Y-107754741D01*
X151328965Y-107811005D01*
X151476495Y-107958535D01*
X151645286Y-108081170D01*
X151733116Y-108125921D01*
X151831179Y-108175887D01*
X151831181Y-108175887D01*
X151831184Y-108175889D01*
X151937545Y-108210448D01*
X152029610Y-108240362D01*
X152235676Y-108273000D01*
X152235681Y-108273000D01*
X152444324Y-108273000D01*
X152650389Y-108240362D01*
X152848816Y-108175889D01*
X153034714Y-108081170D01*
X153203505Y-107958535D01*
X153351035Y-107811005D01*
X153473670Y-107642214D01*
X153499515Y-107591490D01*
X153547489Y-107540694D01*
X153615310Y-107523898D01*
X153681445Y-107546435D01*
X153720485Y-107591490D01*
X153746328Y-107642212D01*
X153828086Y-107754741D01*
X153868965Y-107811005D01*
X154016495Y-107958535D01*
X154185286Y-108081170D01*
X154273116Y-108125921D01*
X154371179Y-108175887D01*
X154371181Y-108175887D01*
X154371184Y-108175889D01*
X154477545Y-108210448D01*
X154569610Y-108240362D01*
X154775676Y-108273000D01*
X154775681Y-108273000D01*
X154984324Y-108273000D01*
X155190389Y-108240362D01*
X155388816Y-108175889D01*
X155574714Y-108081170D01*
X155743505Y-107958535D01*
X155891035Y-107811005D01*
X156013670Y-107642214D01*
X156039515Y-107591490D01*
X156087489Y-107540694D01*
X156155310Y-107523898D01*
X156221445Y-107546435D01*
X156260485Y-107591490D01*
X156286328Y-107642212D01*
X156368086Y-107754741D01*
X156408965Y-107811005D01*
X156556495Y-107958535D01*
X156725286Y-108081170D01*
X156813116Y-108125921D01*
X156911179Y-108175887D01*
X156911181Y-108175887D01*
X156911184Y-108175889D01*
X157017545Y-108210448D01*
X157109610Y-108240362D01*
X157315676Y-108273000D01*
X157315681Y-108273000D01*
X157524324Y-108273000D01*
X157730389Y-108240362D01*
X157928816Y-108175889D01*
X158114714Y-108081170D01*
X158283505Y-107958535D01*
X158431035Y-107811005D01*
X158553670Y-107642214D01*
X158579515Y-107591490D01*
X158627489Y-107540694D01*
X158695310Y-107523898D01*
X158761445Y-107546435D01*
X158800485Y-107591490D01*
X158826328Y-107642212D01*
X158908086Y-107754741D01*
X158948965Y-107811005D01*
X159096495Y-107958535D01*
X159265286Y-108081170D01*
X159353116Y-108125921D01*
X159451179Y-108175887D01*
X159451181Y-108175887D01*
X159451184Y-108175889D01*
X159557545Y-108210448D01*
X159649610Y-108240362D01*
X159855676Y-108273000D01*
X159855681Y-108273000D01*
X160064324Y-108273000D01*
X160270389Y-108240362D01*
X160468816Y-108175889D01*
X160654714Y-108081170D01*
X160823505Y-107958535D01*
X160971035Y-107811005D01*
X161093670Y-107642214D01*
X161119515Y-107591490D01*
X161167489Y-107540694D01*
X161235310Y-107523898D01*
X161301445Y-107546435D01*
X161340485Y-107591490D01*
X161366328Y-107642212D01*
X161448086Y-107754741D01*
X161488965Y-107811005D01*
X161636495Y-107958535D01*
X161805286Y-108081170D01*
X161893116Y-108125921D01*
X161991179Y-108175887D01*
X161991181Y-108175887D01*
X161991184Y-108175889D01*
X162097545Y-108210448D01*
X162189610Y-108240362D01*
X162395676Y-108273000D01*
X162395681Y-108273000D01*
X162604324Y-108273000D01*
X162810389Y-108240362D01*
X163008816Y-108175889D01*
X163194714Y-108081170D01*
X163363505Y-107958535D01*
X163511035Y-107811005D01*
X163633670Y-107642214D01*
X163659515Y-107591490D01*
X163707489Y-107540694D01*
X163775310Y-107523898D01*
X163841445Y-107546435D01*
X163880485Y-107591490D01*
X163906328Y-107642212D01*
X163988086Y-107754741D01*
X164028965Y-107811005D01*
X164176495Y-107958535D01*
X164345286Y-108081170D01*
X164433116Y-108125921D01*
X164531179Y-108175887D01*
X164531181Y-108175887D01*
X164531184Y-108175889D01*
X164637545Y-108210448D01*
X164729610Y-108240362D01*
X164935676Y-108273000D01*
X164935681Y-108273000D01*
X165144324Y-108273000D01*
X165350389Y-108240362D01*
X165548816Y-108175889D01*
X165734714Y-108081170D01*
X165903505Y-107958535D01*
X166051035Y-107811005D01*
X166173670Y-107642214D01*
X166199515Y-107591490D01*
X166247489Y-107540694D01*
X166315310Y-107523898D01*
X166381445Y-107546435D01*
X166420485Y-107591490D01*
X166446328Y-107642212D01*
X166528086Y-107754741D01*
X166568965Y-107811005D01*
X166716495Y-107958535D01*
X166885286Y-108081170D01*
X166973116Y-108125921D01*
X167071179Y-108175887D01*
X167071181Y-108175887D01*
X167071184Y-108175889D01*
X167177545Y-108210448D01*
X167269610Y-108240362D01*
X167475676Y-108273000D01*
X167475681Y-108273000D01*
X167684324Y-108273000D01*
X167890389Y-108240362D01*
X168088816Y-108175889D01*
X168274714Y-108081170D01*
X168443505Y-107958535D01*
X168591035Y-107811005D01*
X168713670Y-107642214D01*
X168808389Y-107456316D01*
X168872862Y-107257889D01*
X168905500Y-107051824D01*
X168905500Y-106843175D01*
X168872862Y-106637110D01*
X168808387Y-106438679D01*
X168713669Y-106252785D01*
X168591035Y-106083995D01*
X168443505Y-105936465D01*
X168274714Y-105813830D01*
X168088820Y-105719112D01*
X167890389Y-105654637D01*
X167684324Y-105622000D01*
X167684319Y-105622000D01*
X167475681Y-105622000D01*
X167475676Y-105622000D01*
X167269610Y-105654637D01*
X167071179Y-105719112D01*
X166885285Y-105813830D01*
X166716493Y-105936466D01*
X166568966Y-106083993D01*
X166446330Y-106252785D01*
X166420485Y-106303510D01*
X166372510Y-106354306D01*
X166304690Y-106371101D01*
X166238555Y-106348564D01*
X166199515Y-106303510D01*
X166173669Y-106252785D01*
X166051035Y-106083995D01*
X165903505Y-105936465D01*
X165734714Y-105813830D01*
X165548820Y-105719112D01*
X165350389Y-105654637D01*
X165144324Y-105622000D01*
X165144319Y-105622000D01*
X164935681Y-105622000D01*
X164935676Y-105622000D01*
X164729610Y-105654637D01*
X164531179Y-105719112D01*
X164345285Y-105813830D01*
X164176493Y-105936466D01*
X164028966Y-106083993D01*
X163906330Y-106252785D01*
X163880485Y-106303510D01*
X163832510Y-106354306D01*
X163764690Y-106371101D01*
X163698555Y-106348564D01*
X163659515Y-106303510D01*
X163633669Y-106252785D01*
X163511035Y-106083995D01*
X163363505Y-105936465D01*
X163194714Y-105813830D01*
X163008820Y-105719112D01*
X162810389Y-105654637D01*
X162604324Y-105622000D01*
X162604319Y-105622000D01*
X162395681Y-105622000D01*
X162395676Y-105622000D01*
X162189610Y-105654637D01*
X161991179Y-105719112D01*
X161805285Y-105813830D01*
X161636493Y-105936466D01*
X161488966Y-106083993D01*
X161366330Y-106252785D01*
X161340485Y-106303510D01*
X161292510Y-106354306D01*
X161224690Y-106371101D01*
X161158555Y-106348564D01*
X161119515Y-106303510D01*
X161093669Y-106252785D01*
X160971035Y-106083995D01*
X160823505Y-105936465D01*
X160654714Y-105813830D01*
X160468820Y-105719112D01*
X160270389Y-105654637D01*
X160064324Y-105622000D01*
X160064319Y-105622000D01*
X159855681Y-105622000D01*
X159855676Y-105622000D01*
X159649610Y-105654637D01*
X159451179Y-105719112D01*
X159265285Y-105813830D01*
X159096493Y-105936466D01*
X158948966Y-106083993D01*
X158826330Y-106252785D01*
X158800485Y-106303510D01*
X158752510Y-106354306D01*
X158684690Y-106371101D01*
X158618555Y-106348564D01*
X158579515Y-106303510D01*
X158553669Y-106252785D01*
X158431035Y-106083995D01*
X158283505Y-105936465D01*
X158114714Y-105813830D01*
X157928820Y-105719112D01*
X157730389Y-105654637D01*
X157524324Y-105622000D01*
X157524319Y-105622000D01*
X157315681Y-105622000D01*
X157315676Y-105622000D01*
X157109610Y-105654637D01*
X156911179Y-105719112D01*
X156725285Y-105813830D01*
X156556493Y-105936466D01*
X156408966Y-106083993D01*
X156286330Y-106252785D01*
X156260485Y-106303510D01*
X156212510Y-106354306D01*
X156144690Y-106371101D01*
X156078555Y-106348564D01*
X156039515Y-106303510D01*
X156013669Y-106252785D01*
X155891035Y-106083995D01*
X155743505Y-105936465D01*
X155574714Y-105813830D01*
X155388820Y-105719112D01*
X155190389Y-105654637D01*
X154984324Y-105622000D01*
X154984319Y-105622000D01*
X154775681Y-105622000D01*
X154775676Y-105622000D01*
X154569610Y-105654637D01*
X154371179Y-105719112D01*
X154185285Y-105813830D01*
X154016493Y-105936466D01*
X153868966Y-106083993D01*
X153746330Y-106252785D01*
X153720485Y-106303510D01*
X153672510Y-106354306D01*
X153604690Y-106371101D01*
X153538555Y-106348564D01*
X153499515Y-106303510D01*
X153473669Y-106252785D01*
X153351035Y-106083995D01*
X153203505Y-105936465D01*
X153034714Y-105813830D01*
X152848820Y-105719112D01*
X152650389Y-105654637D01*
X152444324Y-105622000D01*
X152444319Y-105622000D01*
X152235681Y-105622000D01*
X152235676Y-105622000D01*
X152029610Y-105654637D01*
X151831179Y-105719112D01*
X151645285Y-105813830D01*
X151476493Y-105936466D01*
X151328966Y-106083993D01*
X151206330Y-106252785D01*
X151180485Y-106303510D01*
X151132510Y-106354306D01*
X151064690Y-106371101D01*
X150998555Y-106348564D01*
X150959515Y-106303510D01*
X150933669Y-106252785D01*
X150811035Y-106083995D01*
X150663505Y-105936465D01*
X150494714Y-105813830D01*
X150308820Y-105719112D01*
X150110389Y-105654637D01*
X149904324Y-105622000D01*
X149904319Y-105622000D01*
X149695681Y-105622000D01*
X149695676Y-105622000D01*
X149489610Y-105654637D01*
X149291179Y-105719112D01*
X149105285Y-105813830D01*
X148936493Y-105936466D01*
X148788966Y-106083993D01*
X148666330Y-106252785D01*
X148640485Y-106303510D01*
X148592510Y-106354306D01*
X148524690Y-106371101D01*
X148458555Y-106348564D01*
X148419515Y-106303510D01*
X148393669Y-106252785D01*
X148271035Y-106083995D01*
X148123505Y-105936465D01*
X147954714Y-105813830D01*
X147768820Y-105719112D01*
X147570389Y-105654637D01*
X147364324Y-105622000D01*
X147364319Y-105622000D01*
X147155681Y-105622000D01*
X147155676Y-105622000D01*
X146949610Y-105654637D01*
X146751179Y-105719112D01*
X146565285Y-105813830D01*
X146396493Y-105936466D01*
X146248966Y-106083993D01*
X146126330Y-106252785D01*
X146100485Y-106303510D01*
X146052510Y-106354306D01*
X145984690Y-106371101D01*
X145918555Y-106348564D01*
X145879515Y-106303510D01*
X145853669Y-106252785D01*
X145731035Y-106083995D01*
X145583505Y-105936465D01*
X145414714Y-105813830D01*
X145228820Y-105719112D01*
X145030389Y-105654637D01*
X144824324Y-105622000D01*
X144824319Y-105622000D01*
X144615681Y-105622000D01*
X144615676Y-105622000D01*
X144409610Y-105654637D01*
X144211179Y-105719112D01*
X144025285Y-105813830D01*
X143856493Y-105936466D01*
X143708966Y-106083993D01*
X143586330Y-106252785D01*
X143560485Y-106303510D01*
X143512510Y-106354306D01*
X143444690Y-106371101D01*
X143378555Y-106348564D01*
X143339515Y-106303510D01*
X143313669Y-106252785D01*
X143191035Y-106083995D01*
X143043505Y-105936465D01*
X142874714Y-105813830D01*
X142688820Y-105719112D01*
X142490389Y-105654637D01*
X142284324Y-105622000D01*
X142284319Y-105622000D01*
X142075681Y-105622000D01*
X142075676Y-105622000D01*
X141869610Y-105654637D01*
X141671179Y-105719112D01*
X141485285Y-105813830D01*
X141316493Y-105936466D01*
X141168966Y-106083993D01*
X141046330Y-106252785D01*
X141020485Y-106303510D01*
X140972510Y-106354306D01*
X140904690Y-106371101D01*
X140838555Y-106348564D01*
X140799515Y-106303510D01*
X140773669Y-106252785D01*
X140651035Y-106083995D01*
X140503505Y-105936465D01*
X140334714Y-105813830D01*
X140148820Y-105719112D01*
X139950389Y-105654637D01*
X139744324Y-105622000D01*
X139744319Y-105622000D01*
X139535681Y-105622000D01*
X139535676Y-105622000D01*
X139329610Y-105654637D01*
X139131179Y-105719112D01*
X138945285Y-105813830D01*
X138776493Y-105936466D01*
X138628966Y-106083993D01*
X138506330Y-106252785D01*
X138480485Y-106303510D01*
X138432510Y-106354306D01*
X138364690Y-106371101D01*
X138298555Y-106348564D01*
X138259515Y-106303510D01*
X138233669Y-106252785D01*
X138111035Y-106083995D01*
X137963505Y-105936465D01*
X137794714Y-105813830D01*
X137608820Y-105719112D01*
X137410389Y-105654637D01*
X137204324Y-105622000D01*
X137204319Y-105622000D01*
X136995681Y-105622000D01*
X136995676Y-105622000D01*
X136789610Y-105654637D01*
X136591179Y-105719112D01*
X136405285Y-105813830D01*
X136236493Y-105936466D01*
X136088966Y-106083993D01*
X135966330Y-106252785D01*
X135940485Y-106303510D01*
X135892510Y-106354306D01*
X135824690Y-106371101D01*
X135758555Y-106348564D01*
X135719515Y-106303510D01*
X135693669Y-106252785D01*
X135571035Y-106083995D01*
X135423505Y-105936465D01*
X135254714Y-105813830D01*
X135068820Y-105719112D01*
X134870389Y-105654637D01*
X134664324Y-105622000D01*
X134664319Y-105622000D01*
X134455681Y-105622000D01*
X134455676Y-105622000D01*
X134249610Y-105654637D01*
X134051179Y-105719112D01*
X133865285Y-105813830D01*
X133696493Y-105936466D01*
X133548966Y-106083993D01*
X133426330Y-106252785D01*
X133400485Y-106303510D01*
X133352510Y-106354306D01*
X133284690Y-106371101D01*
X133218555Y-106348564D01*
X133179515Y-106303510D01*
X133153669Y-106252785D01*
X133031035Y-106083995D01*
X132883505Y-105936465D01*
X132714714Y-105813830D01*
X132528820Y-105719112D01*
X132330389Y-105654637D01*
X132124324Y-105622000D01*
X132124319Y-105622000D01*
X131915681Y-105622000D01*
X131915676Y-105622000D01*
X131709610Y-105654637D01*
X131511179Y-105719112D01*
X131325285Y-105813830D01*
X131156493Y-105936466D01*
X131008966Y-106083993D01*
X130886330Y-106252785D01*
X130860485Y-106303510D01*
X130812510Y-106354306D01*
X130744690Y-106371101D01*
X130678555Y-106348564D01*
X130639515Y-106303510D01*
X130613669Y-106252785D01*
X130491035Y-106083995D01*
X130343505Y-105936465D01*
X130174714Y-105813830D01*
X129988820Y-105719112D01*
X129790389Y-105654637D01*
X129584324Y-105622000D01*
X129584319Y-105622000D01*
X129375681Y-105622000D01*
X129375676Y-105622000D01*
X129169610Y-105654637D01*
X128971179Y-105719112D01*
X128785285Y-105813830D01*
X128616493Y-105936466D01*
X128468966Y-106083993D01*
X128346330Y-106252785D01*
X128320485Y-106303510D01*
X128272510Y-106354306D01*
X128204690Y-106371101D01*
X128138555Y-106348564D01*
X128099515Y-106303510D01*
X128073669Y-106252785D01*
X127951035Y-106083995D01*
X127803505Y-105936465D01*
X127634714Y-105813830D01*
X127448820Y-105719112D01*
X127250389Y-105654637D01*
X127044324Y-105622000D01*
X127044319Y-105622000D01*
X126835681Y-105622000D01*
X126835676Y-105622000D01*
X126629610Y-105654637D01*
X126431179Y-105719112D01*
X126245285Y-105813830D01*
X126076493Y-105936466D01*
X125928966Y-106083993D01*
X125806330Y-106252785D01*
X125780485Y-106303510D01*
X125732510Y-106354306D01*
X125664690Y-106371101D01*
X125598555Y-106348564D01*
X125559515Y-106303510D01*
X125533669Y-106252785D01*
X125411035Y-106083995D01*
X125263505Y-105936465D01*
X125094714Y-105813830D01*
X124908820Y-105719112D01*
X124710389Y-105654637D01*
X124504324Y-105622000D01*
X124504319Y-105622000D01*
X124295681Y-105622000D01*
X124295676Y-105622000D01*
X124089610Y-105654637D01*
X123891179Y-105719112D01*
X123705285Y-105813830D01*
X123536493Y-105936466D01*
X123388966Y-106083993D01*
X123266330Y-106252785D01*
X123171612Y-106438679D01*
X123107137Y-106637110D01*
X123074500Y-106843175D01*
X96480500Y-106843175D01*
X96480500Y-83823175D01*
X123074500Y-83823175D01*
X123074500Y-84031824D01*
X123107137Y-84237889D01*
X123171612Y-84436320D01*
X123230795Y-84552473D01*
X123266330Y-84622214D01*
X123388965Y-84791005D01*
X123536495Y-84938535D01*
X123705286Y-85061170D01*
X123771319Y-85094815D01*
X123891179Y-85155887D01*
X123891181Y-85155887D01*
X123891184Y-85155889D01*
X123986497Y-85186858D01*
X124089610Y-85220362D01*
X124295676Y-85253000D01*
X124295681Y-85253000D01*
X124504324Y-85253000D01*
X124710389Y-85220362D01*
X124908816Y-85155889D01*
X125094714Y-85061170D01*
X125263505Y-84938535D01*
X125411035Y-84791005D01*
X125533670Y-84622214D01*
X125559515Y-84571490D01*
X125607489Y-84520694D01*
X125675310Y-84503898D01*
X125741445Y-84526435D01*
X125780485Y-84571490D01*
X125806328Y-84622212D01*
X125857453Y-84692578D01*
X125928965Y-84791005D01*
X126076495Y-84938535D01*
X126245286Y-85061170D01*
X126311319Y-85094815D01*
X126431179Y-85155887D01*
X126431181Y-85155887D01*
X126431184Y-85155889D01*
X126526497Y-85186858D01*
X126629610Y-85220362D01*
X126835676Y-85253000D01*
X126835681Y-85253000D01*
X127044324Y-85253000D01*
X127250389Y-85220362D01*
X127448816Y-85155889D01*
X127634714Y-85061170D01*
X127803505Y-84938535D01*
X127951035Y-84791005D01*
X128073670Y-84622214D01*
X128099515Y-84571490D01*
X128147489Y-84520694D01*
X128215310Y-84503898D01*
X128281445Y-84526435D01*
X128320485Y-84571490D01*
X128346328Y-84622212D01*
X128397453Y-84692578D01*
X128468965Y-84791005D01*
X128616495Y-84938535D01*
X128785286Y-85061170D01*
X128851319Y-85094815D01*
X128971179Y-85155887D01*
X128971181Y-85155887D01*
X128971184Y-85155889D01*
X129066497Y-85186858D01*
X129169610Y-85220362D01*
X129375676Y-85253000D01*
X129375681Y-85253000D01*
X129584324Y-85253000D01*
X129790389Y-85220362D01*
X129988816Y-85155889D01*
X130174714Y-85061170D01*
X130343505Y-84938535D01*
X130491035Y-84791005D01*
X130613670Y-84622214D01*
X130639515Y-84571490D01*
X130687489Y-84520694D01*
X130755310Y-84503898D01*
X130821445Y-84526435D01*
X130860485Y-84571490D01*
X130886328Y-84622212D01*
X130937453Y-84692578D01*
X131008965Y-84791005D01*
X131156495Y-84938535D01*
X131325286Y-85061170D01*
X131391319Y-85094815D01*
X131511179Y-85155887D01*
X131511181Y-85155887D01*
X131511184Y-85155889D01*
X131606497Y-85186858D01*
X131709610Y-85220362D01*
X131915676Y-85253000D01*
X131915681Y-85253000D01*
X132124324Y-85253000D01*
X132330389Y-85220362D01*
X132528816Y-85155889D01*
X132714714Y-85061170D01*
X132883505Y-84938535D01*
X133031035Y-84791005D01*
X133153670Y-84622214D01*
X133179515Y-84571490D01*
X133227489Y-84520694D01*
X133295310Y-84503898D01*
X133361445Y-84526435D01*
X133400485Y-84571490D01*
X133426328Y-84622212D01*
X133477453Y-84692578D01*
X133548965Y-84791005D01*
X133696495Y-84938535D01*
X133865286Y-85061170D01*
X133931319Y-85094815D01*
X134051179Y-85155887D01*
X134051181Y-85155887D01*
X134051184Y-85155889D01*
X134146497Y-85186858D01*
X134249610Y-85220362D01*
X134455676Y-85253000D01*
X134455681Y-85253000D01*
X134664324Y-85253000D01*
X134870389Y-85220362D01*
X135068816Y-85155889D01*
X135254714Y-85061170D01*
X135423505Y-84938535D01*
X135571035Y-84791005D01*
X135693670Y-84622214D01*
X135719515Y-84571490D01*
X135767489Y-84520694D01*
X135835310Y-84503898D01*
X135901445Y-84526435D01*
X135940485Y-84571490D01*
X135966328Y-84622212D01*
X136017453Y-84692578D01*
X136088965Y-84791005D01*
X136236495Y-84938535D01*
X136405286Y-85061170D01*
X136471319Y-85094815D01*
X136591179Y-85155887D01*
X136591181Y-85155887D01*
X136591184Y-85155889D01*
X136686497Y-85186858D01*
X136789610Y-85220362D01*
X136995676Y-85253000D01*
X136995681Y-85253000D01*
X137204324Y-85253000D01*
X137410389Y-85220362D01*
X137608816Y-85155889D01*
X137794714Y-85061170D01*
X137963505Y-84938535D01*
X138111035Y-84791005D01*
X138233670Y-84622214D01*
X138259515Y-84571490D01*
X138307489Y-84520694D01*
X138375310Y-84503898D01*
X138441445Y-84526435D01*
X138480485Y-84571490D01*
X138506328Y-84622212D01*
X138557453Y-84692578D01*
X138628965Y-84791005D01*
X138776495Y-84938535D01*
X138945286Y-85061170D01*
X139011319Y-85094815D01*
X139131179Y-85155887D01*
X139131181Y-85155887D01*
X139131184Y-85155889D01*
X139226497Y-85186858D01*
X139329610Y-85220362D01*
X139535676Y-85253000D01*
X139535681Y-85253000D01*
X139744324Y-85253000D01*
X139950389Y-85220362D01*
X140148816Y-85155889D01*
X140334714Y-85061170D01*
X140503505Y-84938535D01*
X140651035Y-84791005D01*
X140773670Y-84622214D01*
X140799515Y-84571490D01*
X140847489Y-84520694D01*
X140915310Y-84503898D01*
X140981445Y-84526435D01*
X141020485Y-84571490D01*
X141046328Y-84622212D01*
X141097453Y-84692578D01*
X141168965Y-84791005D01*
X141316495Y-84938535D01*
X141485286Y-85061170D01*
X141551319Y-85094815D01*
X141671179Y-85155887D01*
X141671181Y-85155887D01*
X141671184Y-85155889D01*
X141766497Y-85186858D01*
X141869610Y-85220362D01*
X142075676Y-85253000D01*
X142075681Y-85253000D01*
X142284324Y-85253000D01*
X142490389Y-85220362D01*
X142688816Y-85155889D01*
X142874714Y-85061170D01*
X143043505Y-84938535D01*
X143191035Y-84791005D01*
X143313670Y-84622214D01*
X143339515Y-84571490D01*
X143387489Y-84520694D01*
X143455310Y-84503898D01*
X143521445Y-84526435D01*
X143560485Y-84571490D01*
X143586328Y-84622212D01*
X143637453Y-84692578D01*
X143708965Y-84791005D01*
X143856495Y-84938535D01*
X144025286Y-85061170D01*
X144091319Y-85094815D01*
X144211179Y-85155887D01*
X144211181Y-85155887D01*
X144211184Y-85155889D01*
X144306497Y-85186858D01*
X144409610Y-85220362D01*
X144615676Y-85253000D01*
X144615681Y-85253000D01*
X144824324Y-85253000D01*
X145030389Y-85220362D01*
X145228816Y-85155889D01*
X145414714Y-85061170D01*
X145583505Y-84938535D01*
X145731035Y-84791005D01*
X145853670Y-84622214D01*
X145879515Y-84571490D01*
X145927489Y-84520694D01*
X145995310Y-84503898D01*
X146061445Y-84526435D01*
X146100485Y-84571490D01*
X146126328Y-84622212D01*
X146177453Y-84692578D01*
X146248965Y-84791005D01*
X146396495Y-84938535D01*
X146565286Y-85061170D01*
X146631319Y-85094815D01*
X146751179Y-85155887D01*
X146751181Y-85155887D01*
X146751184Y-85155889D01*
X146846497Y-85186858D01*
X146949610Y-85220362D01*
X147155676Y-85253000D01*
X147155681Y-85253000D01*
X147364324Y-85253000D01*
X147570389Y-85220362D01*
X147768816Y-85155889D01*
X147954714Y-85061170D01*
X148123505Y-84938535D01*
X148271035Y-84791005D01*
X148393670Y-84622214D01*
X148419515Y-84571490D01*
X148467489Y-84520694D01*
X148535310Y-84503898D01*
X148601445Y-84526435D01*
X148640485Y-84571490D01*
X148666328Y-84622212D01*
X148717453Y-84692578D01*
X148788965Y-84791005D01*
X148936495Y-84938535D01*
X149105286Y-85061170D01*
X149171319Y-85094815D01*
X149291179Y-85155887D01*
X149291181Y-85155887D01*
X149291184Y-85155889D01*
X149386497Y-85186858D01*
X149489610Y-85220362D01*
X149695676Y-85253000D01*
X149695681Y-85253000D01*
X149904324Y-85253000D01*
X150110389Y-85220362D01*
X150308816Y-85155889D01*
X150494714Y-85061170D01*
X150663505Y-84938535D01*
X150811035Y-84791005D01*
X150933670Y-84622214D01*
X150959515Y-84571490D01*
X151007489Y-84520694D01*
X151075310Y-84503898D01*
X151141445Y-84526435D01*
X151180485Y-84571490D01*
X151206328Y-84622212D01*
X151257453Y-84692578D01*
X151328965Y-84791005D01*
X151476495Y-84938535D01*
X151645286Y-85061170D01*
X151711319Y-85094815D01*
X151831179Y-85155887D01*
X151831181Y-85155887D01*
X151831184Y-85155889D01*
X151926497Y-85186858D01*
X152029610Y-85220362D01*
X152235676Y-85253000D01*
X152235681Y-85253000D01*
X152444324Y-85253000D01*
X152650389Y-85220362D01*
X152848816Y-85155889D01*
X153034714Y-85061170D01*
X153203505Y-84938535D01*
X153351035Y-84791005D01*
X153473670Y-84622214D01*
X153499515Y-84571490D01*
X153547489Y-84520694D01*
X153615310Y-84503898D01*
X153681445Y-84526435D01*
X153720485Y-84571490D01*
X153746328Y-84622212D01*
X153797453Y-84692578D01*
X153868965Y-84791005D01*
X154016495Y-84938535D01*
X154185286Y-85061170D01*
X154251319Y-85094815D01*
X154371179Y-85155887D01*
X154371181Y-85155887D01*
X154371184Y-85155889D01*
X154466497Y-85186858D01*
X154569610Y-85220362D01*
X154775676Y-85253000D01*
X154775681Y-85253000D01*
X154984324Y-85253000D01*
X155190389Y-85220362D01*
X155388816Y-85155889D01*
X155574714Y-85061170D01*
X155743505Y-84938535D01*
X155891035Y-84791005D01*
X156013670Y-84622214D01*
X156039515Y-84571490D01*
X156087489Y-84520694D01*
X156155310Y-84503898D01*
X156221445Y-84526435D01*
X156260485Y-84571490D01*
X156286328Y-84622212D01*
X156337453Y-84692578D01*
X156408965Y-84791005D01*
X156556495Y-84938535D01*
X156725286Y-85061170D01*
X156791319Y-85094815D01*
X156911179Y-85155887D01*
X156911181Y-85155887D01*
X156911184Y-85155889D01*
X157006497Y-85186858D01*
X157109610Y-85220362D01*
X157315676Y-85253000D01*
X157315681Y-85253000D01*
X157524324Y-85253000D01*
X157730389Y-85220362D01*
X157928816Y-85155889D01*
X158114714Y-85061170D01*
X158283505Y-84938535D01*
X158431035Y-84791005D01*
X158553670Y-84622214D01*
X158579515Y-84571490D01*
X158627489Y-84520694D01*
X158695310Y-84503898D01*
X158761445Y-84526435D01*
X158800485Y-84571490D01*
X158826328Y-84622212D01*
X158877453Y-84692578D01*
X158948965Y-84791005D01*
X159096495Y-84938535D01*
X159265286Y-85061170D01*
X159331319Y-85094815D01*
X159451179Y-85155887D01*
X159451181Y-85155887D01*
X159451184Y-85155889D01*
X159546497Y-85186858D01*
X159649610Y-85220362D01*
X159855676Y-85253000D01*
X159855681Y-85253000D01*
X160064324Y-85253000D01*
X160270389Y-85220362D01*
X160468816Y-85155889D01*
X160654714Y-85061170D01*
X160823505Y-84938535D01*
X160971035Y-84791005D01*
X161093670Y-84622214D01*
X161119515Y-84571490D01*
X161167489Y-84520694D01*
X161235310Y-84503898D01*
X161301445Y-84526435D01*
X161340485Y-84571490D01*
X161366328Y-84622212D01*
X161417453Y-84692578D01*
X161488965Y-84791005D01*
X161636495Y-84938535D01*
X161805286Y-85061170D01*
X161871319Y-85094815D01*
X161991179Y-85155887D01*
X161991181Y-85155887D01*
X161991184Y-85155889D01*
X162086497Y-85186858D01*
X162189610Y-85220362D01*
X162395676Y-85253000D01*
X162395681Y-85253000D01*
X162604324Y-85253000D01*
X162810389Y-85220362D01*
X163008816Y-85155889D01*
X163194714Y-85061170D01*
X163363505Y-84938535D01*
X163511035Y-84791005D01*
X163633670Y-84622214D01*
X163659515Y-84571490D01*
X163707489Y-84520694D01*
X163775310Y-84503898D01*
X163841445Y-84526435D01*
X163880485Y-84571490D01*
X163906328Y-84622212D01*
X163957453Y-84692578D01*
X164028965Y-84791005D01*
X164176495Y-84938535D01*
X164345286Y-85061170D01*
X164411319Y-85094815D01*
X164531179Y-85155887D01*
X164531181Y-85155887D01*
X164531184Y-85155889D01*
X164626497Y-85186858D01*
X164729610Y-85220362D01*
X164935676Y-85253000D01*
X164935681Y-85253000D01*
X165144324Y-85253000D01*
X165350389Y-85220362D01*
X165548816Y-85155889D01*
X165734714Y-85061170D01*
X165903505Y-84938535D01*
X166051035Y-84791005D01*
X166087205Y-84741221D01*
X166142532Y-84698557D01*
X166212145Y-84692578D01*
X166273940Y-84725183D01*
X166305226Y-84775102D01*
X166320640Y-84821615D01*
X166320643Y-84821624D01*
X166412684Y-84970845D01*
X166536654Y-85094815D01*
X166685875Y-85186856D01*
X166685880Y-85186858D01*
X166852302Y-85242005D01*
X166852309Y-85242006D01*
X166955019Y-85252499D01*
X167329999Y-85252499D01*
X167330000Y-85252498D01*
X167330000Y-84418247D01*
X167367708Y-84440018D01*
X167507591Y-84477500D01*
X167652409Y-84477500D01*
X167792292Y-84440018D01*
X167830000Y-84418247D01*
X167830000Y-85252499D01*
X168204972Y-85252499D01*
X168204986Y-85252498D01*
X168307697Y-85242005D01*
X168474119Y-85186858D01*
X168474124Y-85186856D01*
X168623345Y-85094815D01*
X168747315Y-84970845D01*
X168839356Y-84821624D01*
X168839358Y-84821619D01*
X168894505Y-84655197D01*
X168894506Y-84655190D01*
X168904999Y-84552486D01*
X168905000Y-84552473D01*
X168905000Y-84177500D01*
X168070748Y-84177500D01*
X168092518Y-84139792D01*
X168130000Y-83999909D01*
X168130000Y-83855091D01*
X168092518Y-83715208D01*
X168070748Y-83677500D01*
X168904999Y-83677500D01*
X168904999Y-83302528D01*
X168904998Y-83302513D01*
X168894505Y-83199802D01*
X168839358Y-83033380D01*
X168839356Y-83033375D01*
X168747315Y-82884154D01*
X168623345Y-82760184D01*
X168474124Y-82668143D01*
X168474119Y-82668141D01*
X168307697Y-82612994D01*
X168307690Y-82612993D01*
X168204986Y-82602500D01*
X167830000Y-82602500D01*
X167830000Y-83436752D01*
X167792292Y-83414982D01*
X167652409Y-83377500D01*
X167507591Y-83377500D01*
X167367708Y-83414982D01*
X167330000Y-83436752D01*
X167330000Y-82602500D01*
X166955028Y-82602500D01*
X166955012Y-82602501D01*
X166852302Y-82612994D01*
X166685880Y-82668141D01*
X166685875Y-82668143D01*
X166536654Y-82760184D01*
X166412684Y-82884154D01*
X166320643Y-83033375D01*
X166320641Y-83033380D01*
X166305228Y-83079895D01*
X166265455Y-83137340D01*
X166200939Y-83164163D01*
X166132163Y-83151848D01*
X166087205Y-83113778D01*
X166051035Y-83063995D01*
X165903506Y-82916466D01*
X165734714Y-82793830D01*
X165548820Y-82699112D01*
X165350389Y-82634637D01*
X165144324Y-82602000D01*
X165144319Y-82602000D01*
X164935681Y-82602000D01*
X164935676Y-82602000D01*
X164729610Y-82634637D01*
X164531179Y-82699112D01*
X164345285Y-82793830D01*
X164176493Y-82916466D01*
X164028966Y-83063993D01*
X163906330Y-83232785D01*
X163880485Y-83283510D01*
X163832510Y-83334306D01*
X163764690Y-83351101D01*
X163698555Y-83328564D01*
X163659515Y-83283510D01*
X163633669Y-83232785D01*
X163583812Y-83164163D01*
X163511035Y-83063995D01*
X163363505Y-82916465D01*
X163194714Y-82793830D01*
X163008820Y-82699112D01*
X162810389Y-82634637D01*
X162604324Y-82602000D01*
X162604319Y-82602000D01*
X162395681Y-82602000D01*
X162395676Y-82602000D01*
X162189610Y-82634637D01*
X161991179Y-82699112D01*
X161805285Y-82793830D01*
X161636493Y-82916466D01*
X161488966Y-83063993D01*
X161366330Y-83232785D01*
X161340485Y-83283510D01*
X161292510Y-83334306D01*
X161224690Y-83351101D01*
X161158555Y-83328564D01*
X161119515Y-83283510D01*
X161093669Y-83232785D01*
X161043812Y-83164163D01*
X160971035Y-83063995D01*
X160823505Y-82916465D01*
X160654714Y-82793830D01*
X160468820Y-82699112D01*
X160270389Y-82634637D01*
X160064324Y-82602000D01*
X160064319Y-82602000D01*
X159855681Y-82602000D01*
X159855676Y-82602000D01*
X159649610Y-82634637D01*
X159451179Y-82699112D01*
X159265285Y-82793830D01*
X159096493Y-82916466D01*
X158948966Y-83063993D01*
X158826330Y-83232785D01*
X158800485Y-83283510D01*
X158752510Y-83334306D01*
X158684690Y-83351101D01*
X158618555Y-83328564D01*
X158579515Y-83283510D01*
X158553669Y-83232785D01*
X158503812Y-83164163D01*
X158431035Y-83063995D01*
X158283505Y-82916465D01*
X158114714Y-82793830D01*
X157928820Y-82699112D01*
X157730389Y-82634637D01*
X157524324Y-82602000D01*
X157524319Y-82602000D01*
X157315681Y-82602000D01*
X157315676Y-82602000D01*
X157109610Y-82634637D01*
X156911179Y-82699112D01*
X156725285Y-82793830D01*
X156556493Y-82916466D01*
X156408966Y-83063993D01*
X156286330Y-83232785D01*
X156260485Y-83283510D01*
X156212510Y-83334306D01*
X156144690Y-83351101D01*
X156078555Y-83328564D01*
X156039515Y-83283510D01*
X156013669Y-83232785D01*
X155963812Y-83164163D01*
X155891035Y-83063995D01*
X155743505Y-82916465D01*
X155574714Y-82793830D01*
X155388820Y-82699112D01*
X155190389Y-82634637D01*
X154984324Y-82602000D01*
X154984319Y-82602000D01*
X154775681Y-82602000D01*
X154775676Y-82602000D01*
X154569610Y-82634637D01*
X154371179Y-82699112D01*
X154185285Y-82793830D01*
X154016493Y-82916466D01*
X153868966Y-83063993D01*
X153746330Y-83232785D01*
X153720485Y-83283510D01*
X153672510Y-83334306D01*
X153604690Y-83351101D01*
X153538555Y-83328564D01*
X153499515Y-83283510D01*
X153473669Y-83232785D01*
X153423812Y-83164163D01*
X153351035Y-83063995D01*
X153203505Y-82916465D01*
X153034714Y-82793830D01*
X152848820Y-82699112D01*
X152650389Y-82634637D01*
X152444324Y-82602000D01*
X152444319Y-82602000D01*
X152235681Y-82602000D01*
X152235676Y-82602000D01*
X152029610Y-82634637D01*
X151831179Y-82699112D01*
X151645285Y-82793830D01*
X151476493Y-82916466D01*
X151328966Y-83063993D01*
X151206330Y-83232785D01*
X151180485Y-83283510D01*
X151132510Y-83334306D01*
X151064690Y-83351101D01*
X150998555Y-83328564D01*
X150959515Y-83283510D01*
X150933669Y-83232785D01*
X150883812Y-83164163D01*
X150811035Y-83063995D01*
X150663505Y-82916465D01*
X150494714Y-82793830D01*
X150308820Y-82699112D01*
X150110389Y-82634637D01*
X149904324Y-82602000D01*
X149904319Y-82602000D01*
X149695681Y-82602000D01*
X149695676Y-82602000D01*
X149489610Y-82634637D01*
X149291179Y-82699112D01*
X149105285Y-82793830D01*
X148936493Y-82916466D01*
X148788966Y-83063993D01*
X148666330Y-83232785D01*
X148640485Y-83283510D01*
X148592510Y-83334306D01*
X148524690Y-83351101D01*
X148458555Y-83328564D01*
X148419515Y-83283510D01*
X148393669Y-83232785D01*
X148343812Y-83164163D01*
X148271035Y-83063995D01*
X148123505Y-82916465D01*
X147954714Y-82793830D01*
X147768820Y-82699112D01*
X147570389Y-82634637D01*
X147364324Y-82602000D01*
X147364319Y-82602000D01*
X147155681Y-82602000D01*
X147155676Y-82602000D01*
X146949610Y-82634637D01*
X146751179Y-82699112D01*
X146565285Y-82793830D01*
X146396493Y-82916466D01*
X146248966Y-83063993D01*
X146126330Y-83232785D01*
X146100485Y-83283510D01*
X146052510Y-83334306D01*
X145984690Y-83351101D01*
X145918555Y-83328564D01*
X145879515Y-83283510D01*
X145853669Y-83232785D01*
X145803812Y-83164163D01*
X145731035Y-83063995D01*
X145583505Y-82916465D01*
X145414714Y-82793830D01*
X145228820Y-82699112D01*
X145030389Y-82634637D01*
X144824324Y-82602000D01*
X144824319Y-82602000D01*
X144615681Y-82602000D01*
X144615676Y-82602000D01*
X144409610Y-82634637D01*
X144211179Y-82699112D01*
X144025285Y-82793830D01*
X143856493Y-82916466D01*
X143708966Y-83063993D01*
X143586330Y-83232785D01*
X143560485Y-83283510D01*
X143512510Y-83334306D01*
X143444690Y-83351101D01*
X143378555Y-83328564D01*
X143339515Y-83283510D01*
X143313669Y-83232785D01*
X143263812Y-83164163D01*
X143191035Y-83063995D01*
X143043505Y-82916465D01*
X142874714Y-82793830D01*
X142688820Y-82699112D01*
X142490389Y-82634637D01*
X142284324Y-82602000D01*
X142284319Y-82602000D01*
X142075681Y-82602000D01*
X142075676Y-82602000D01*
X141869610Y-82634637D01*
X141671179Y-82699112D01*
X141485285Y-82793830D01*
X141316493Y-82916466D01*
X141168966Y-83063993D01*
X141046330Y-83232785D01*
X141020485Y-83283510D01*
X140972510Y-83334306D01*
X140904690Y-83351101D01*
X140838555Y-83328564D01*
X140799515Y-83283510D01*
X140773669Y-83232785D01*
X140723812Y-83164163D01*
X140651035Y-83063995D01*
X140503505Y-82916465D01*
X140334714Y-82793830D01*
X140148820Y-82699112D01*
X139950389Y-82634637D01*
X139744324Y-82602000D01*
X139744319Y-82602000D01*
X139535681Y-82602000D01*
X139535676Y-82602000D01*
X139329610Y-82634637D01*
X139131179Y-82699112D01*
X138945285Y-82793830D01*
X138776493Y-82916466D01*
X138628966Y-83063993D01*
X138506330Y-83232785D01*
X138480485Y-83283510D01*
X138432510Y-83334306D01*
X138364690Y-83351101D01*
X138298555Y-83328564D01*
X138259515Y-83283510D01*
X138233669Y-83232785D01*
X138183812Y-83164163D01*
X138111035Y-83063995D01*
X137963505Y-82916465D01*
X137794714Y-82793830D01*
X137608820Y-82699112D01*
X137410389Y-82634637D01*
X137204324Y-82602000D01*
X137204319Y-82602000D01*
X136995681Y-82602000D01*
X136995676Y-82602000D01*
X136789610Y-82634637D01*
X136591179Y-82699112D01*
X136405285Y-82793830D01*
X136236493Y-82916466D01*
X136088966Y-83063993D01*
X135966330Y-83232785D01*
X135940485Y-83283510D01*
X135892510Y-83334306D01*
X135824690Y-83351101D01*
X135758555Y-83328564D01*
X135719515Y-83283510D01*
X135693669Y-83232785D01*
X135643812Y-83164163D01*
X135571035Y-83063995D01*
X135423505Y-82916465D01*
X135254714Y-82793830D01*
X135068820Y-82699112D01*
X134870389Y-82634637D01*
X134664324Y-82602000D01*
X134664319Y-82602000D01*
X134455681Y-82602000D01*
X134455676Y-82602000D01*
X134249610Y-82634637D01*
X134051179Y-82699112D01*
X133865285Y-82793830D01*
X133696493Y-82916466D01*
X133548966Y-83063993D01*
X133426330Y-83232785D01*
X133400485Y-83283510D01*
X133352510Y-83334306D01*
X133284690Y-83351101D01*
X133218555Y-83328564D01*
X133179515Y-83283510D01*
X133153669Y-83232785D01*
X133103812Y-83164163D01*
X133031035Y-83063995D01*
X132883505Y-82916465D01*
X132714714Y-82793830D01*
X132528820Y-82699112D01*
X132330389Y-82634637D01*
X132124324Y-82602000D01*
X132124319Y-82602000D01*
X131915681Y-82602000D01*
X131915676Y-82602000D01*
X131709610Y-82634637D01*
X131511179Y-82699112D01*
X131325285Y-82793830D01*
X131156493Y-82916466D01*
X131008966Y-83063993D01*
X130886330Y-83232785D01*
X130860485Y-83283510D01*
X130812510Y-83334306D01*
X130744690Y-83351101D01*
X130678555Y-83328564D01*
X130639515Y-83283510D01*
X130613669Y-83232785D01*
X130563812Y-83164163D01*
X130491035Y-83063995D01*
X130343505Y-82916465D01*
X130174714Y-82793830D01*
X129988820Y-82699112D01*
X129790389Y-82634637D01*
X129584324Y-82602000D01*
X129584319Y-82602000D01*
X129375681Y-82602000D01*
X129375676Y-82602000D01*
X129169610Y-82634637D01*
X128971179Y-82699112D01*
X128785285Y-82793830D01*
X128616493Y-82916466D01*
X128468966Y-83063993D01*
X128346330Y-83232785D01*
X128320485Y-83283510D01*
X128272510Y-83334306D01*
X128204690Y-83351101D01*
X128138555Y-83328564D01*
X128099515Y-83283510D01*
X128073669Y-83232785D01*
X128023812Y-83164163D01*
X127951035Y-83063995D01*
X127803505Y-82916465D01*
X127634714Y-82793830D01*
X127448820Y-82699112D01*
X127250389Y-82634637D01*
X127044324Y-82602000D01*
X127044319Y-82602000D01*
X126835681Y-82602000D01*
X126835676Y-82602000D01*
X126629610Y-82634637D01*
X126431179Y-82699112D01*
X126245285Y-82793830D01*
X126076493Y-82916466D01*
X125928966Y-83063993D01*
X125806330Y-83232785D01*
X125780485Y-83283510D01*
X125732510Y-83334306D01*
X125664690Y-83351101D01*
X125598555Y-83328564D01*
X125559515Y-83283510D01*
X125533669Y-83232785D01*
X125483812Y-83164163D01*
X125411035Y-83063995D01*
X125263505Y-82916465D01*
X125094714Y-82793830D01*
X124908820Y-82699112D01*
X124710389Y-82634637D01*
X124504324Y-82602000D01*
X124504319Y-82602000D01*
X124295681Y-82602000D01*
X124295676Y-82602000D01*
X124089610Y-82634637D01*
X123891179Y-82699112D01*
X123705285Y-82793830D01*
X123536493Y-82916466D01*
X123388966Y-83063993D01*
X123266330Y-83232785D01*
X123171612Y-83418679D01*
X123107137Y-83617110D01*
X123074500Y-83823175D01*
X96480500Y-83823175D01*
X96480500Y-59107973D01*
X101969500Y-59107973D01*
X101969500Y-59352027D01*
X102007679Y-59593076D01*
X102034695Y-59676224D01*
X102083097Y-59825187D01*
X102193896Y-60042642D01*
X102337339Y-60240076D01*
X102337343Y-60240081D01*
X102509918Y-60412656D01*
X102509923Y-60412660D01*
X102660536Y-60522086D01*
X102707361Y-60556106D01*
X102924815Y-60666904D01*
X103156924Y-60742321D01*
X103397973Y-60780500D01*
X103397974Y-60780500D01*
X103642026Y-60780500D01*
X103642027Y-60780500D01*
X103883076Y-60742321D01*
X104115185Y-60666904D01*
X104332639Y-60556106D01*
X104530083Y-60412655D01*
X104702655Y-60240083D01*
X104846106Y-60042639D01*
X104956904Y-59825185D01*
X105032321Y-59593076D01*
X105070500Y-59352027D01*
X105070500Y-59107973D01*
X106969500Y-59107973D01*
X106969500Y-59352027D01*
X107007679Y-59593076D01*
X107034695Y-59676224D01*
X107083097Y-59825187D01*
X107193896Y-60042642D01*
X107337339Y-60240076D01*
X107337343Y-60240081D01*
X107509918Y-60412656D01*
X107509923Y-60412660D01*
X107660536Y-60522086D01*
X107707361Y-60556106D01*
X107924815Y-60666904D01*
X108156924Y-60742321D01*
X108397973Y-60780500D01*
X108397974Y-60780500D01*
X108642026Y-60780500D01*
X108642027Y-60780500D01*
X108883076Y-60742321D01*
X109115185Y-60666904D01*
X109332639Y-60556106D01*
X109530083Y-60412655D01*
X109702655Y-60240083D01*
X109846106Y-60042639D01*
X109956904Y-59825185D01*
X110032321Y-59593076D01*
X110070500Y-59352027D01*
X110070500Y-59107973D01*
X111969500Y-59107973D01*
X111969500Y-59352027D01*
X112007679Y-59593076D01*
X112034695Y-59676224D01*
X112083097Y-59825187D01*
X112193896Y-60042642D01*
X112337339Y-60240076D01*
X112337343Y-60240081D01*
X112509918Y-60412656D01*
X112509923Y-60412660D01*
X112660536Y-60522086D01*
X112707361Y-60556106D01*
X112924815Y-60666904D01*
X113156924Y-60742321D01*
X113397973Y-60780500D01*
X113397974Y-60780500D01*
X113642026Y-60780500D01*
X113642027Y-60780500D01*
X113883076Y-60742321D01*
X114115185Y-60666904D01*
X114332639Y-60556106D01*
X114530083Y-60412655D01*
X114702655Y-60240083D01*
X114846106Y-60042639D01*
X114956904Y-59825185D01*
X115032321Y-59593076D01*
X115070500Y-59352027D01*
X115070500Y-59107973D01*
X116969500Y-59107973D01*
X116969500Y-59352027D01*
X117007679Y-59593076D01*
X117034695Y-59676224D01*
X117083097Y-59825187D01*
X117193896Y-60042642D01*
X117337339Y-60240076D01*
X117337343Y-60240081D01*
X117509918Y-60412656D01*
X117509923Y-60412660D01*
X117660536Y-60522086D01*
X117707361Y-60556106D01*
X117924815Y-60666904D01*
X118156924Y-60742321D01*
X118397973Y-60780500D01*
X118397974Y-60780500D01*
X118642026Y-60780500D01*
X118642027Y-60780500D01*
X118883076Y-60742321D01*
X119115185Y-60666904D01*
X119332639Y-60556106D01*
X119530083Y-60412655D01*
X119702655Y-60240083D01*
X119846106Y-60042639D01*
X119956904Y-59825185D01*
X120032321Y-59593076D01*
X120070500Y-59352027D01*
X120070500Y-59107973D01*
X121969500Y-59107973D01*
X121969500Y-59352027D01*
X122007679Y-59593076D01*
X122034695Y-59676224D01*
X122083097Y-59825187D01*
X122193896Y-60042642D01*
X122337339Y-60240076D01*
X122337343Y-60240081D01*
X122509918Y-60412656D01*
X122509923Y-60412660D01*
X122660536Y-60522086D01*
X122707361Y-60556106D01*
X122924815Y-60666904D01*
X123156924Y-60742321D01*
X123397973Y-60780500D01*
X123397974Y-60780500D01*
X123642026Y-60780500D01*
X123642027Y-60780500D01*
X123883076Y-60742321D01*
X124115185Y-60666904D01*
X124332639Y-60556106D01*
X124530083Y-60412655D01*
X124702655Y-60240083D01*
X124846106Y-60042639D01*
X124956904Y-59825185D01*
X125032321Y-59593076D01*
X125070500Y-59352027D01*
X125070500Y-59107973D01*
X126969500Y-59107973D01*
X126969500Y-59352027D01*
X127007679Y-59593076D01*
X127034695Y-59676224D01*
X127083097Y-59825187D01*
X127193896Y-60042642D01*
X127337339Y-60240076D01*
X127337343Y-60240081D01*
X127509918Y-60412656D01*
X127509923Y-60412660D01*
X127660536Y-60522086D01*
X127707361Y-60556106D01*
X127924815Y-60666904D01*
X128156924Y-60742321D01*
X128397973Y-60780500D01*
X128397974Y-60780500D01*
X128642026Y-60780500D01*
X128642027Y-60780500D01*
X128883076Y-60742321D01*
X129115185Y-60666904D01*
X129332639Y-60556106D01*
X129530083Y-60412655D01*
X129702655Y-60240083D01*
X129846106Y-60042639D01*
X129956904Y-59825185D01*
X130032321Y-59593076D01*
X130070500Y-59352027D01*
X130070500Y-59107973D01*
X131969500Y-59107973D01*
X131969500Y-59352027D01*
X132007679Y-59593076D01*
X132034695Y-59676224D01*
X132083097Y-59825187D01*
X132193896Y-60042642D01*
X132337339Y-60240076D01*
X132337343Y-60240081D01*
X132509918Y-60412656D01*
X132509923Y-60412660D01*
X132660536Y-60522086D01*
X132707361Y-60556106D01*
X132924815Y-60666904D01*
X133156924Y-60742321D01*
X133397973Y-60780500D01*
X133397974Y-60780500D01*
X133642026Y-60780500D01*
X133642027Y-60780500D01*
X133883076Y-60742321D01*
X134115185Y-60666904D01*
X134332639Y-60556106D01*
X134530083Y-60412655D01*
X134702655Y-60240083D01*
X134846106Y-60042639D01*
X134956904Y-59825185D01*
X135032321Y-59593076D01*
X135070500Y-59352027D01*
X135070500Y-59107973D01*
X136969500Y-59107973D01*
X136969500Y-59352027D01*
X137007679Y-59593076D01*
X137034695Y-59676224D01*
X137083097Y-59825187D01*
X137193896Y-60042642D01*
X137337339Y-60240076D01*
X137337343Y-60240081D01*
X137509918Y-60412656D01*
X137509923Y-60412660D01*
X137660536Y-60522086D01*
X137707361Y-60556106D01*
X137924815Y-60666904D01*
X138156924Y-60742321D01*
X138397973Y-60780500D01*
X138397974Y-60780500D01*
X138642026Y-60780500D01*
X138642027Y-60780500D01*
X138883076Y-60742321D01*
X139115185Y-60666904D01*
X139332639Y-60556106D01*
X139530083Y-60412655D01*
X139702655Y-60240083D01*
X139846106Y-60042639D01*
X139956904Y-59825185D01*
X140032321Y-59593076D01*
X140070500Y-59352027D01*
X140070500Y-59107973D01*
X141969500Y-59107973D01*
X141969500Y-59352027D01*
X142007679Y-59593076D01*
X142034695Y-59676224D01*
X142083097Y-59825187D01*
X142193896Y-60042642D01*
X142337339Y-60240076D01*
X142337343Y-60240081D01*
X142509918Y-60412656D01*
X142509923Y-60412660D01*
X142660536Y-60522086D01*
X142707361Y-60556106D01*
X142924815Y-60666904D01*
X143156924Y-60742321D01*
X143397973Y-60780500D01*
X143397974Y-60780500D01*
X143642026Y-60780500D01*
X143642027Y-60780500D01*
X143883076Y-60742321D01*
X144115185Y-60666904D01*
X144332639Y-60556106D01*
X144530083Y-60412655D01*
X144702655Y-60240083D01*
X144846106Y-60042639D01*
X144956904Y-59825185D01*
X145032321Y-59593076D01*
X145070500Y-59352027D01*
X145070500Y-59107973D01*
X146969500Y-59107973D01*
X146969500Y-59352027D01*
X147007679Y-59593076D01*
X147034695Y-59676224D01*
X147083097Y-59825187D01*
X147193896Y-60042642D01*
X147337339Y-60240076D01*
X147337343Y-60240081D01*
X147509918Y-60412656D01*
X147509923Y-60412660D01*
X147660536Y-60522086D01*
X147707361Y-60556106D01*
X147924815Y-60666904D01*
X148156924Y-60742321D01*
X148397973Y-60780500D01*
X148397974Y-60780500D01*
X148642026Y-60780500D01*
X148642027Y-60780500D01*
X148883076Y-60742321D01*
X149115185Y-60666904D01*
X149332639Y-60556106D01*
X149530083Y-60412655D01*
X149702655Y-60240083D01*
X149846106Y-60042639D01*
X149956904Y-59825185D01*
X150032321Y-59593076D01*
X150070500Y-59352027D01*
X150070500Y-59107973D01*
X151969500Y-59107973D01*
X151969500Y-59352027D01*
X152007679Y-59593076D01*
X152034695Y-59676224D01*
X152083097Y-59825187D01*
X152193896Y-60042642D01*
X152337339Y-60240076D01*
X152337343Y-60240081D01*
X152509918Y-60412656D01*
X152509923Y-60412660D01*
X152660536Y-60522086D01*
X152707361Y-60556106D01*
X152924815Y-60666904D01*
X153156924Y-60742321D01*
X153397973Y-60780500D01*
X153397974Y-60780500D01*
X153642026Y-60780500D01*
X153642027Y-60780500D01*
X153883076Y-60742321D01*
X154115185Y-60666904D01*
X154332639Y-60556106D01*
X154530083Y-60412655D01*
X154702655Y-60240083D01*
X154846106Y-60042639D01*
X154956904Y-59825185D01*
X155032321Y-59593076D01*
X155070500Y-59352027D01*
X155070500Y-59107973D01*
X156969500Y-59107973D01*
X156969500Y-59352027D01*
X157007679Y-59593076D01*
X157034695Y-59676224D01*
X157083097Y-59825187D01*
X157193896Y-60042642D01*
X157337339Y-60240076D01*
X157337343Y-60240081D01*
X157509918Y-60412656D01*
X157509923Y-60412660D01*
X157660536Y-60522086D01*
X157707361Y-60556106D01*
X157924815Y-60666904D01*
X158156924Y-60742321D01*
X158397973Y-60780500D01*
X158397974Y-60780500D01*
X158642026Y-60780500D01*
X158642027Y-60780500D01*
X158883076Y-60742321D01*
X159115185Y-60666904D01*
X159332639Y-60556106D01*
X159530083Y-60412655D01*
X159702655Y-60240083D01*
X159846106Y-60042639D01*
X159956904Y-59825185D01*
X160032321Y-59593076D01*
X160070500Y-59352027D01*
X160070500Y-59107973D01*
X161969500Y-59107973D01*
X161969500Y-59352027D01*
X162007679Y-59593076D01*
X162034695Y-59676224D01*
X162083097Y-59825187D01*
X162193896Y-60042642D01*
X162337339Y-60240076D01*
X162337343Y-60240081D01*
X162509918Y-60412656D01*
X162509923Y-60412660D01*
X162660536Y-60522086D01*
X162707361Y-60556106D01*
X162924815Y-60666904D01*
X163156924Y-60742321D01*
X163397973Y-60780500D01*
X163397974Y-60780500D01*
X163642026Y-60780500D01*
X163642027Y-60780500D01*
X163883076Y-60742321D01*
X164115185Y-60666904D01*
X164332639Y-60556106D01*
X164530083Y-60412655D01*
X164702655Y-60240083D01*
X164846106Y-60042639D01*
X164956904Y-59825185D01*
X165032321Y-59593076D01*
X165070500Y-59352027D01*
X165070500Y-59107973D01*
X166969500Y-59107973D01*
X166969500Y-59352027D01*
X167007679Y-59593076D01*
X167034695Y-59676224D01*
X167083097Y-59825187D01*
X167193896Y-60042642D01*
X167337339Y-60240076D01*
X167337343Y-60240081D01*
X167509918Y-60412656D01*
X167509923Y-60412660D01*
X167660536Y-60522086D01*
X167707361Y-60556106D01*
X167924815Y-60666904D01*
X168156924Y-60742321D01*
X168397973Y-60780500D01*
X168397974Y-60780500D01*
X168642026Y-60780500D01*
X168642027Y-60780500D01*
X168883076Y-60742321D01*
X169115185Y-60666904D01*
X169332639Y-60556106D01*
X169530083Y-60412655D01*
X169702655Y-60240083D01*
X169846106Y-60042639D01*
X169956904Y-59825185D01*
X170032321Y-59593076D01*
X170070500Y-59352027D01*
X170070500Y-59107973D01*
X171969500Y-59107973D01*
X171969500Y-59352027D01*
X172007679Y-59593076D01*
X172034695Y-59676224D01*
X172083097Y-59825187D01*
X172193896Y-60042642D01*
X172337339Y-60240076D01*
X172337343Y-60240081D01*
X172509918Y-60412656D01*
X172509923Y-60412660D01*
X172660536Y-60522086D01*
X172707361Y-60556106D01*
X172924815Y-60666904D01*
X173156924Y-60742321D01*
X173397973Y-60780500D01*
X173397974Y-60780500D01*
X173642026Y-60780500D01*
X173642027Y-60780500D01*
X173883076Y-60742321D01*
X174115185Y-60666904D01*
X174332639Y-60556106D01*
X174530083Y-60412655D01*
X174702655Y-60240083D01*
X174846106Y-60042639D01*
X174956904Y-59825185D01*
X175032321Y-59593076D01*
X175070500Y-59352027D01*
X175070500Y-59107973D01*
X176969500Y-59107973D01*
X176969500Y-59352027D01*
X177007679Y-59593076D01*
X177034695Y-59676224D01*
X177083097Y-59825187D01*
X177193896Y-60042642D01*
X177337339Y-60240076D01*
X177337343Y-60240081D01*
X177509918Y-60412656D01*
X177509923Y-60412660D01*
X177660536Y-60522086D01*
X177707361Y-60556106D01*
X177924815Y-60666904D01*
X178156924Y-60742321D01*
X178397973Y-60780500D01*
X178397974Y-60780500D01*
X178642026Y-60780500D01*
X178642027Y-60780500D01*
X178883076Y-60742321D01*
X179115185Y-60666904D01*
X179332639Y-60556106D01*
X179530083Y-60412655D01*
X179702655Y-60240083D01*
X179846106Y-60042639D01*
X179956904Y-59825185D01*
X180032321Y-59593076D01*
X180070500Y-59352027D01*
X180070500Y-59107973D01*
X181969500Y-59107973D01*
X181969500Y-59352027D01*
X182007679Y-59593076D01*
X182034695Y-59676224D01*
X182083097Y-59825187D01*
X182193896Y-60042642D01*
X182337339Y-60240076D01*
X182337343Y-60240081D01*
X182509918Y-60412656D01*
X182509923Y-60412660D01*
X182660536Y-60522086D01*
X182707361Y-60556106D01*
X182924815Y-60666904D01*
X183156924Y-60742321D01*
X183397973Y-60780500D01*
X183397974Y-60780500D01*
X183642026Y-60780500D01*
X183642027Y-60780500D01*
X183883076Y-60742321D01*
X184115185Y-60666904D01*
X184332639Y-60556106D01*
X184530083Y-60412655D01*
X184702655Y-60240083D01*
X184846106Y-60042639D01*
X184956904Y-59825185D01*
X185032321Y-59593076D01*
X185070500Y-59352027D01*
X185070500Y-59107973D01*
X185032321Y-58866924D01*
X184956904Y-58634815D01*
X184846106Y-58417361D01*
X184827779Y-58392136D01*
X184702660Y-58219923D01*
X184702656Y-58219918D01*
X184614893Y-58132155D01*
X186970000Y-58132155D01*
X186970000Y-58980000D01*
X187865879Y-58980000D01*
X187846901Y-59025818D01*
X187820000Y-59161056D01*
X187820000Y-59298944D01*
X187846901Y-59434182D01*
X187865879Y-59480000D01*
X186970000Y-59480000D01*
X186970000Y-60327844D01*
X186976401Y-60387372D01*
X186976403Y-60387379D01*
X187026645Y-60522086D01*
X187026649Y-60522093D01*
X187112809Y-60637187D01*
X187112812Y-60637190D01*
X187227906Y-60723350D01*
X187227913Y-60723354D01*
X187362620Y-60773596D01*
X187362627Y-60773598D01*
X187422155Y-60779999D01*
X187422172Y-60780000D01*
X188270000Y-60780000D01*
X188270000Y-59884120D01*
X188315818Y-59903099D01*
X188451056Y-59930000D01*
X188588944Y-59930000D01*
X188724182Y-59903099D01*
X188770000Y-59884120D01*
X188770000Y-60780000D01*
X189617828Y-60780000D01*
X189617844Y-60779999D01*
X189677372Y-60773598D01*
X189677379Y-60773596D01*
X189812086Y-60723354D01*
X189812093Y-60723350D01*
X189927187Y-60637190D01*
X189927190Y-60637187D01*
X190013350Y-60522093D01*
X190013354Y-60522086D01*
X190063596Y-60387379D01*
X190063598Y-60387372D01*
X190069999Y-60327844D01*
X190070000Y-60327827D01*
X190070000Y-59480000D01*
X189174121Y-59480000D01*
X189193099Y-59434182D01*
X189220000Y-59298944D01*
X189220000Y-59161056D01*
X189193099Y-59025818D01*
X189174121Y-58980000D01*
X190070000Y-58980000D01*
X190070000Y-58132172D01*
X190069999Y-58132155D01*
X190063598Y-58072627D01*
X190063596Y-58072620D01*
X190013354Y-57937913D01*
X190013350Y-57937906D01*
X189927190Y-57822812D01*
X189927187Y-57822809D01*
X189812093Y-57736649D01*
X189812086Y-57736645D01*
X189677379Y-57686403D01*
X189677372Y-57686401D01*
X189617844Y-57680000D01*
X188770000Y-57680000D01*
X188770000Y-58575879D01*
X188724182Y-58556901D01*
X188588944Y-58530000D01*
X188451056Y-58530000D01*
X188315818Y-58556901D01*
X188270000Y-58575879D01*
X188270000Y-57680000D01*
X187422155Y-57680000D01*
X187362627Y-57686401D01*
X187362620Y-57686403D01*
X187227913Y-57736645D01*
X187227906Y-57736649D01*
X187112812Y-57822809D01*
X187112809Y-57822812D01*
X187026649Y-57937906D01*
X187026645Y-57937913D01*
X186976403Y-58072620D01*
X186976401Y-58072627D01*
X186970000Y-58132155D01*
X184614893Y-58132155D01*
X184530081Y-58047343D01*
X184530076Y-58047339D01*
X184332642Y-57903896D01*
X184332641Y-57903895D01*
X184332639Y-57903894D01*
X184115185Y-57793096D01*
X183883076Y-57717679D01*
X183883074Y-57717678D01*
X183883072Y-57717678D01*
X183685610Y-57686403D01*
X183642027Y-57679500D01*
X183397973Y-57679500D01*
X183354390Y-57686403D01*
X183156927Y-57717678D01*
X182924812Y-57793097D01*
X182707357Y-57903896D01*
X182509923Y-58047339D01*
X182509918Y-58047343D01*
X182337343Y-58219918D01*
X182337339Y-58219923D01*
X182193896Y-58417357D01*
X182083097Y-58634812D01*
X182007678Y-58866927D01*
X182002689Y-58898426D01*
X181969500Y-59107973D01*
X180070500Y-59107973D01*
X180032321Y-58866924D01*
X179956904Y-58634815D01*
X179846106Y-58417361D01*
X179827779Y-58392136D01*
X179702660Y-58219923D01*
X179702656Y-58219918D01*
X179530081Y-58047343D01*
X179530076Y-58047339D01*
X179332642Y-57903896D01*
X179332641Y-57903895D01*
X179332639Y-57903894D01*
X179115185Y-57793096D01*
X178883076Y-57717679D01*
X178883074Y-57717678D01*
X178883072Y-57717678D01*
X178685610Y-57686403D01*
X178642027Y-57679500D01*
X178397973Y-57679500D01*
X178354390Y-57686403D01*
X178156927Y-57717678D01*
X177924812Y-57793097D01*
X177707357Y-57903896D01*
X177509923Y-58047339D01*
X177509918Y-58047343D01*
X177337343Y-58219918D01*
X177337339Y-58219923D01*
X177193896Y-58417357D01*
X177083097Y-58634812D01*
X177007678Y-58866927D01*
X177002689Y-58898426D01*
X176969500Y-59107973D01*
X175070500Y-59107973D01*
X175032321Y-58866924D01*
X174956904Y-58634815D01*
X174846106Y-58417361D01*
X174827779Y-58392136D01*
X174702660Y-58219923D01*
X174702656Y-58219918D01*
X174530081Y-58047343D01*
X174530076Y-58047339D01*
X174332642Y-57903896D01*
X174332641Y-57903895D01*
X174332639Y-57903894D01*
X174115185Y-57793096D01*
X173883076Y-57717679D01*
X173883074Y-57717678D01*
X173883072Y-57717678D01*
X173685610Y-57686403D01*
X173642027Y-57679500D01*
X173397973Y-57679500D01*
X173354390Y-57686403D01*
X173156927Y-57717678D01*
X172924812Y-57793097D01*
X172707357Y-57903896D01*
X172509923Y-58047339D01*
X172509918Y-58047343D01*
X172337343Y-58219918D01*
X172337339Y-58219923D01*
X172193896Y-58417357D01*
X172083097Y-58634812D01*
X172007678Y-58866927D01*
X172002689Y-58898426D01*
X171969500Y-59107973D01*
X170070500Y-59107973D01*
X170032321Y-58866924D01*
X169956904Y-58634815D01*
X169846106Y-58417361D01*
X169827779Y-58392136D01*
X169702660Y-58219923D01*
X169702656Y-58219918D01*
X169530081Y-58047343D01*
X169530076Y-58047339D01*
X169332642Y-57903896D01*
X169332641Y-57903895D01*
X169332639Y-57903894D01*
X169115185Y-57793096D01*
X168883076Y-57717679D01*
X168883074Y-57717678D01*
X168883072Y-57717678D01*
X168685610Y-57686403D01*
X168642027Y-57679500D01*
X168397973Y-57679500D01*
X168354390Y-57686403D01*
X168156927Y-57717678D01*
X167924812Y-57793097D01*
X167707357Y-57903896D01*
X167509923Y-58047339D01*
X167509918Y-58047343D01*
X167337343Y-58219918D01*
X167337339Y-58219923D01*
X167193896Y-58417357D01*
X167083097Y-58634812D01*
X167007678Y-58866927D01*
X167002689Y-58898426D01*
X166969500Y-59107973D01*
X165070500Y-59107973D01*
X165032321Y-58866924D01*
X164956904Y-58634815D01*
X164846106Y-58417361D01*
X164827779Y-58392136D01*
X164702660Y-58219923D01*
X164702656Y-58219918D01*
X164530081Y-58047343D01*
X164530076Y-58047339D01*
X164332642Y-57903896D01*
X164332641Y-57903895D01*
X164332639Y-57903894D01*
X164115185Y-57793096D01*
X163883076Y-57717679D01*
X163883074Y-57717678D01*
X163883072Y-57717678D01*
X163685610Y-57686403D01*
X163642027Y-57679500D01*
X163397973Y-57679500D01*
X163354390Y-57686403D01*
X163156927Y-57717678D01*
X162924812Y-57793097D01*
X162707357Y-57903896D01*
X162509923Y-58047339D01*
X162509918Y-58047343D01*
X162337343Y-58219918D01*
X162337339Y-58219923D01*
X162193896Y-58417357D01*
X162083097Y-58634812D01*
X162007678Y-58866927D01*
X162002689Y-58898426D01*
X161969500Y-59107973D01*
X160070500Y-59107973D01*
X160032321Y-58866924D01*
X159956904Y-58634815D01*
X159846106Y-58417361D01*
X159827779Y-58392136D01*
X159702660Y-58219923D01*
X159702656Y-58219918D01*
X159530081Y-58047343D01*
X159530076Y-58047339D01*
X159332642Y-57903896D01*
X159332641Y-57903895D01*
X159332639Y-57903894D01*
X159115185Y-57793096D01*
X158883076Y-57717679D01*
X158883074Y-57717678D01*
X158883072Y-57717678D01*
X158685610Y-57686403D01*
X158642027Y-57679500D01*
X158397973Y-57679500D01*
X158354390Y-57686403D01*
X158156927Y-57717678D01*
X157924812Y-57793097D01*
X157707357Y-57903896D01*
X157509923Y-58047339D01*
X157509918Y-58047343D01*
X157337343Y-58219918D01*
X157337339Y-58219923D01*
X157193896Y-58417357D01*
X157083097Y-58634812D01*
X157007678Y-58866927D01*
X157002689Y-58898426D01*
X156969500Y-59107973D01*
X155070500Y-59107973D01*
X155032321Y-58866924D01*
X154956904Y-58634815D01*
X154846106Y-58417361D01*
X154827779Y-58392136D01*
X154702660Y-58219923D01*
X154702656Y-58219918D01*
X154530081Y-58047343D01*
X154530076Y-58047339D01*
X154332642Y-57903896D01*
X154332641Y-57903895D01*
X154332639Y-57903894D01*
X154115185Y-57793096D01*
X153883076Y-57717679D01*
X153883074Y-57717678D01*
X153883072Y-57717678D01*
X153685610Y-57686403D01*
X153642027Y-57679500D01*
X153397973Y-57679500D01*
X153354390Y-57686403D01*
X153156927Y-57717678D01*
X152924812Y-57793097D01*
X152707357Y-57903896D01*
X152509923Y-58047339D01*
X152509918Y-58047343D01*
X152337343Y-58219918D01*
X152337339Y-58219923D01*
X152193896Y-58417357D01*
X152083097Y-58634812D01*
X152007678Y-58866927D01*
X152002689Y-58898426D01*
X151969500Y-59107973D01*
X150070500Y-59107973D01*
X150032321Y-58866924D01*
X149956904Y-58634815D01*
X149846106Y-58417361D01*
X149827779Y-58392136D01*
X149702660Y-58219923D01*
X149702656Y-58219918D01*
X149530081Y-58047343D01*
X149530076Y-58047339D01*
X149332642Y-57903896D01*
X149332641Y-57903895D01*
X149332639Y-57903894D01*
X149115185Y-57793096D01*
X148883076Y-57717679D01*
X148883074Y-57717678D01*
X148883072Y-57717678D01*
X148685610Y-57686403D01*
X148642027Y-57679500D01*
X148397973Y-57679500D01*
X148354390Y-57686403D01*
X148156927Y-57717678D01*
X147924812Y-57793097D01*
X147707357Y-57903896D01*
X147509923Y-58047339D01*
X147509918Y-58047343D01*
X147337343Y-58219918D01*
X147337339Y-58219923D01*
X147193896Y-58417357D01*
X147083097Y-58634812D01*
X147007678Y-58866927D01*
X147002689Y-58898426D01*
X146969500Y-59107973D01*
X145070500Y-59107973D01*
X145032321Y-58866924D01*
X144956904Y-58634815D01*
X144846106Y-58417361D01*
X144827779Y-58392136D01*
X144702660Y-58219923D01*
X144702656Y-58219918D01*
X144530081Y-58047343D01*
X144530076Y-58047339D01*
X144332642Y-57903896D01*
X144332641Y-57903895D01*
X144332639Y-57903894D01*
X144115185Y-57793096D01*
X143883076Y-57717679D01*
X143883074Y-57717678D01*
X143883072Y-57717678D01*
X143685610Y-57686403D01*
X143642027Y-57679500D01*
X143397973Y-57679500D01*
X143354390Y-57686403D01*
X143156927Y-57717678D01*
X142924812Y-57793097D01*
X142707357Y-57903896D01*
X142509923Y-58047339D01*
X142509918Y-58047343D01*
X142337343Y-58219918D01*
X142337339Y-58219923D01*
X142193896Y-58417357D01*
X142083097Y-58634812D01*
X142007678Y-58866927D01*
X142002689Y-58898426D01*
X141969500Y-59107973D01*
X140070500Y-59107973D01*
X140032321Y-58866924D01*
X139956904Y-58634815D01*
X139846106Y-58417361D01*
X139827779Y-58392136D01*
X139702660Y-58219923D01*
X139702656Y-58219918D01*
X139530081Y-58047343D01*
X139530076Y-58047339D01*
X139332642Y-57903896D01*
X139332641Y-57903895D01*
X139332639Y-57903894D01*
X139115185Y-57793096D01*
X138883076Y-57717679D01*
X138883074Y-57717678D01*
X138883072Y-57717678D01*
X138685610Y-57686403D01*
X138642027Y-57679500D01*
X138397973Y-57679500D01*
X138354390Y-57686403D01*
X138156927Y-57717678D01*
X137924812Y-57793097D01*
X137707357Y-57903896D01*
X137509923Y-58047339D01*
X137509918Y-58047343D01*
X137337343Y-58219918D01*
X137337339Y-58219923D01*
X137193896Y-58417357D01*
X137083097Y-58634812D01*
X137007678Y-58866927D01*
X137002689Y-58898426D01*
X136969500Y-59107973D01*
X135070500Y-59107973D01*
X135032321Y-58866924D01*
X134956904Y-58634815D01*
X134846106Y-58417361D01*
X134827779Y-58392136D01*
X134702660Y-58219923D01*
X134702656Y-58219918D01*
X134530081Y-58047343D01*
X134530076Y-58047339D01*
X134332642Y-57903896D01*
X134332641Y-57903895D01*
X134332639Y-57903894D01*
X134115185Y-57793096D01*
X133883076Y-57717679D01*
X133883074Y-57717678D01*
X133883072Y-57717678D01*
X133685610Y-57686403D01*
X133642027Y-57679500D01*
X133397973Y-57679500D01*
X133354390Y-57686403D01*
X133156927Y-57717678D01*
X132924812Y-57793097D01*
X132707357Y-57903896D01*
X132509923Y-58047339D01*
X132509918Y-58047343D01*
X132337343Y-58219918D01*
X132337339Y-58219923D01*
X132193896Y-58417357D01*
X132083097Y-58634812D01*
X132007678Y-58866927D01*
X132002689Y-58898426D01*
X131969500Y-59107973D01*
X130070500Y-59107973D01*
X130032321Y-58866924D01*
X129956904Y-58634815D01*
X129846106Y-58417361D01*
X129827779Y-58392136D01*
X129702660Y-58219923D01*
X129702656Y-58219918D01*
X129530081Y-58047343D01*
X129530076Y-58047339D01*
X129332642Y-57903896D01*
X129332641Y-57903895D01*
X129332639Y-57903894D01*
X129115185Y-57793096D01*
X128883076Y-57717679D01*
X128883074Y-57717678D01*
X128883072Y-57717678D01*
X128685610Y-57686403D01*
X128642027Y-57679500D01*
X128397973Y-57679500D01*
X128354390Y-57686403D01*
X128156927Y-57717678D01*
X127924812Y-57793097D01*
X127707357Y-57903896D01*
X127509923Y-58047339D01*
X127509918Y-58047343D01*
X127337343Y-58219918D01*
X127337339Y-58219923D01*
X127193896Y-58417357D01*
X127083097Y-58634812D01*
X127007678Y-58866927D01*
X127002689Y-58898426D01*
X126969500Y-59107973D01*
X125070500Y-59107973D01*
X125032321Y-58866924D01*
X124956904Y-58634815D01*
X124846106Y-58417361D01*
X124827779Y-58392136D01*
X124702660Y-58219923D01*
X124702656Y-58219918D01*
X124530081Y-58047343D01*
X124530076Y-58047339D01*
X124332642Y-57903896D01*
X124332641Y-57903895D01*
X124332639Y-57903894D01*
X124115185Y-57793096D01*
X123883076Y-57717679D01*
X123883074Y-57717678D01*
X123883072Y-57717678D01*
X123685610Y-57686403D01*
X123642027Y-57679500D01*
X123397973Y-57679500D01*
X123354390Y-57686403D01*
X123156927Y-57717678D01*
X122924812Y-57793097D01*
X122707357Y-57903896D01*
X122509923Y-58047339D01*
X122509918Y-58047343D01*
X122337343Y-58219918D01*
X122337339Y-58219923D01*
X122193896Y-58417357D01*
X122083097Y-58634812D01*
X122007678Y-58866927D01*
X122002689Y-58898426D01*
X121969500Y-59107973D01*
X120070500Y-59107973D01*
X120032321Y-58866924D01*
X119956904Y-58634815D01*
X119846106Y-58417361D01*
X119827779Y-58392136D01*
X119702660Y-58219923D01*
X119702656Y-58219918D01*
X119530081Y-58047343D01*
X119530076Y-58047339D01*
X119332642Y-57903896D01*
X119332641Y-57903895D01*
X119332639Y-57903894D01*
X119115185Y-57793096D01*
X118883076Y-57717679D01*
X118883074Y-57717678D01*
X118883072Y-57717678D01*
X118685610Y-57686403D01*
X118642027Y-57679500D01*
X118397973Y-57679500D01*
X118354390Y-57686403D01*
X118156927Y-57717678D01*
X117924812Y-57793097D01*
X117707357Y-57903896D01*
X117509923Y-58047339D01*
X117509918Y-58047343D01*
X117337343Y-58219918D01*
X117337339Y-58219923D01*
X117193896Y-58417357D01*
X117083097Y-58634812D01*
X117007678Y-58866927D01*
X117002689Y-58898426D01*
X116969500Y-59107973D01*
X115070500Y-59107973D01*
X115032321Y-58866924D01*
X114956904Y-58634815D01*
X114846106Y-58417361D01*
X114827779Y-58392136D01*
X114702660Y-58219923D01*
X114702656Y-58219918D01*
X114530081Y-58047343D01*
X114530076Y-58047339D01*
X114332642Y-57903896D01*
X114332641Y-57903895D01*
X114332639Y-57903894D01*
X114115185Y-57793096D01*
X113883076Y-57717679D01*
X113883074Y-57717678D01*
X113883072Y-57717678D01*
X113685610Y-57686403D01*
X113642027Y-57679500D01*
X113397973Y-57679500D01*
X113354390Y-57686403D01*
X113156927Y-57717678D01*
X112924812Y-57793097D01*
X112707357Y-57903896D01*
X112509923Y-58047339D01*
X112509918Y-58047343D01*
X112337343Y-58219918D01*
X112337339Y-58219923D01*
X112193896Y-58417357D01*
X112083097Y-58634812D01*
X112007678Y-58866927D01*
X112002689Y-58898426D01*
X111969500Y-59107973D01*
X110070500Y-59107973D01*
X110032321Y-58866924D01*
X109956904Y-58634815D01*
X109846106Y-58417361D01*
X109827779Y-58392136D01*
X109702660Y-58219923D01*
X109702656Y-58219918D01*
X109530081Y-58047343D01*
X109530076Y-58047339D01*
X109332642Y-57903896D01*
X109332641Y-57903895D01*
X109332639Y-57903894D01*
X109115185Y-57793096D01*
X108883076Y-57717679D01*
X108883074Y-57717678D01*
X108883072Y-57717678D01*
X108685610Y-57686403D01*
X108642027Y-57679500D01*
X108397973Y-57679500D01*
X108354390Y-57686403D01*
X108156927Y-57717678D01*
X107924812Y-57793097D01*
X107707357Y-57903896D01*
X107509923Y-58047339D01*
X107509918Y-58047343D01*
X107337343Y-58219918D01*
X107337339Y-58219923D01*
X107193896Y-58417357D01*
X107083097Y-58634812D01*
X107007678Y-58866927D01*
X107002689Y-58898426D01*
X106969500Y-59107973D01*
X105070500Y-59107973D01*
X105032321Y-58866924D01*
X104956904Y-58634815D01*
X104846106Y-58417361D01*
X104827779Y-58392136D01*
X104702660Y-58219923D01*
X104702656Y-58219918D01*
X104530081Y-58047343D01*
X104530076Y-58047339D01*
X104332642Y-57903896D01*
X104332641Y-57903895D01*
X104332639Y-57903894D01*
X104115185Y-57793096D01*
X103883076Y-57717679D01*
X103883074Y-57717678D01*
X103883072Y-57717678D01*
X103685610Y-57686403D01*
X103642027Y-57679500D01*
X103397973Y-57679500D01*
X103354390Y-57686403D01*
X103156927Y-57717678D01*
X102924812Y-57793097D01*
X102707357Y-57903896D01*
X102509923Y-58047339D01*
X102509918Y-58047343D01*
X102337343Y-58219918D01*
X102337339Y-58219923D01*
X102193896Y-58417357D01*
X102083097Y-58634812D01*
X102007678Y-58866927D01*
X102002689Y-58898426D01*
X101969500Y-59107973D01*
X96480500Y-59107973D01*
X96480500Y-51028008D01*
X96500185Y-50960969D01*
X96552989Y-50915214D01*
X96622147Y-50905270D01*
X96685703Y-50934295D01*
X96713858Y-50969555D01*
X96802140Y-51134720D01*
X96802151Y-51134738D01*
X97004140Y-51437035D01*
X97004150Y-51437049D01*
X97234807Y-51718106D01*
X97491893Y-51975192D01*
X97491898Y-51975196D01*
X97491899Y-51975197D01*
X97772956Y-52205854D01*
X98075268Y-52407853D01*
X98075277Y-52407858D01*
X98075279Y-52407859D01*
X98395916Y-52579243D01*
X98395918Y-52579243D01*
X98395924Y-52579247D01*
X98731836Y-52718386D01*
X99079767Y-52823930D01*
X99079773Y-52823931D01*
X99079776Y-52823932D01*
X99079787Y-52823935D01*
X99436369Y-52894862D01*
X99798206Y-52930500D01*
X99798209Y-52930500D01*
X100161791Y-52930500D01*
X100161794Y-52930500D01*
X100523631Y-52894862D01*
X100593045Y-52881054D01*
X100880212Y-52823935D01*
X100880223Y-52823932D01*
X100880223Y-52823931D01*
X100880233Y-52823930D01*
X101228164Y-52718386D01*
X101564076Y-52579247D01*
X101884732Y-52407853D01*
X102187044Y-52205854D01*
X102468101Y-51975197D01*
X102725197Y-51718101D01*
X102955854Y-51437044D01*
X103157853Y-51134732D01*
X103329247Y-50814076D01*
X103468386Y-50478164D01*
X103573930Y-50130233D01*
X103573932Y-50130223D01*
X103573935Y-50130212D01*
X103644862Y-49773630D01*
X103680500Y-49411790D01*
X103680500Y-49048209D01*
X103644862Y-48686369D01*
X103573935Y-48329787D01*
X103573932Y-48329776D01*
X103573931Y-48329773D01*
X103573930Y-48329767D01*
X103468386Y-47981836D01*
X103329247Y-47645924D01*
X103280502Y-47554729D01*
X103157859Y-47325279D01*
X103157858Y-47325277D01*
X103157853Y-47325268D01*
X102955854Y-47022956D01*
X102725197Y-46741899D01*
X102725196Y-46741898D01*
X102725192Y-46741893D01*
X102468106Y-46484807D01*
X102187049Y-46254150D01*
X102187048Y-46254149D01*
X102187044Y-46254146D01*
X101884732Y-46052147D01*
X101884727Y-46052144D01*
X101884720Y-46052140D01*
X101719555Y-45963858D01*
X101669711Y-45914896D01*
X101654250Y-45846758D01*
X101678082Y-45781079D01*
X101733639Y-45738710D01*
X101778008Y-45730500D01*
X190181992Y-45730500D01*
X190249031Y-45750185D01*
G37*
%TD.AperFunction*%
%TD*%
M02*
